<svg width="33" height="36" viewBox="0 0 33 36" fill="none" xmlns="http://www.w3.org/2000/svg">
<g id="Group">
<path id="Vector" d="M15.0772 17.2364L0.377197 32.6045C0.85447 34.2273 2.38174 35.4682 4.19538 35.4682C4.95902 35.4682 5.6272 35.2773 6.19992 34.8955L22.809 25.4455L15.0772 17.2364Z" fill="#EA4335"/>
<path id="Vector_2" d="M29.968 14.5636L22.809 10.4591L14.7908 17.5227L22.9044 25.4455L30.0635 21.4364C31.3044 20.7682 32.1635 19.4318 32.1635 18C32.068 16.5682 31.209 15.2318 29.968 14.5636Z" fill="#FBBC04"/>
<path id="Vector_3" d="M0.377193 3.39546C0.281739 3.68183 0.281738 4.06364 0.281738 4.44546L0.281738 31.65C0.281738 32.0318 0.281739 32.3182 0.377193 32.7L15.6499 17.7136L0.377193 3.39546Z" fill="#4285F4"/>
<path id="Vector_4" d="M15.1727 18L22.809 10.4591L6.29538 1.10455C5.72265 0.722731 4.95902 0.531822 4.19538 0.531822C2.38174 0.531822 0.759015 1.77273 0.377197 3.39546L15.1727 18Z" fill="#34A853"/>
</g>
</svg>
