<svg width="28" height="29" viewBox="0 0 28 29" fill="none" xmlns="http://www.w3.org/2000/svg">
<g id="Group">
<path id="Vector" d="M3.38325 3.18329L25.3224 10.496C25.436 10.5336 25.5352 10.6052 25.6067 10.7012C25.6781 10.7971 25.7184 10.9127 25.722 11.0323C25.7255 11.1519 25.6922 11.2696 25.6266 11.3697C25.561 11.4697 25.4662 11.5471 25.3551 11.5915L15.1666 15.6666L10.0041 25.9916C9.95155 26.0968 9.86848 26.1836 9.76576 26.2407C9.66304 26.2978 9.54547 26.3226 9.42844 26.3117C9.3114 26.3009 9.20038 26.2549 9.10991 26.1799C9.01943 26.1049 8.95373 26.0043 8.92142 25.8913L2.63658 3.89612C2.60747 3.79394 2.60682 3.68574 2.6347 3.58322C2.66258 3.48069 2.71793 3.38773 2.79478 3.31436C2.87163 3.24099 2.96706 3.19001 3.07077 3.16691C3.17448 3.14381 3.28252 3.14947 3.38325 3.18329Z" fill="#F58FB5"/>
</g>
</svg>
