<svg width="108" height="111" viewBox="0 0 108 111" fill="none" xmlns="http://www.w3.org/2000/svg">
<g id="Frame 50">
<g id="Vector">
<path d="M69.9811 94.4505C83.4529 77.4473 82.2434 54.0524 67.2797 42.1965C52.316 30.3406 29.2644 34.5134 15.7927 51.5166C2.3209 68.5199 3.53039 91.9148 18.4941 103.771C33.4579 115.627 56.5094 111.454 69.9811 94.4505Z" fill="white"/>
</g>
<path id="Vector_2" d="M15.7997 51.5249C15.7997 51.5249 16.2857 50.8768 17.2902 49.6909C18.7766 47.9891 20.3907 46.4032 22.1183 44.947C24.8507 42.6268 27.8694 40.6666 31.1005 39.1145C35.3823 37.0477 40.0096 35.7909 44.7487 35.4075C47.5005 35.1992 50.2672 35.3145 52.9921 35.751C55.9493 36.237 58.8243 37.1335 61.5336 38.4145C67.5327 41.315 72.4419 46.0652 75.5382 51.9656C78.8915 58.5092 80.1602 65.9228 79.1739 73.2091C78.1196 81.0124 74.9827 88.3876 70.0927 94.5593C65.2027 100.731 58.7403 105.472 51.3849 108.282C44.5145 110.905 37.0048 111.358 29.8692 109.578C23.423 107.903 17.6862 104.2 13.5056 99.015C11.644 96.6689 10.1172 94.0756 8.96911 91.3095C7.92706 88.7534 7.18546 86.085 6.75921 83.3578C6.0461 78.659 6.21091 73.8687 7.24526 69.23C8.01094 65.7316 9.21961 62.3452 10.842 59.1526C11.8686 57.1568 13.045 55.2417 14.361 53.4237C15.2813 52.1794 15.7997 51.5573 15.7997 51.5573L15.4497 52.0433C15.2229 52.3674 14.8535 52.8275 14.4128 53.4626C13.1248 55.31 11.9725 57.2485 10.9651 59.2628C9.3682 62.453 8.18146 65.8325 7.4332 69.3207C6.42471 73.9374 6.27751 78.7006 6.999 83.3707C7.43042 86.0787 8.17417 88.7275 9.21538 91.2641C10.3709 94.0026 11.8973 96.5691 13.7518 98.8919C17.8977 104.014 23.5758 107.673 29.9534 109.332C37.0266 111.082 44.4656 110.63 51.2747 108.036C58.5701 105.237 64.9793 100.53 69.8315 94.405C74.6838 88.2804 77.8008 80.9642 78.8563 73.2221C79.8483 65.9909 78.6021 58.6294 75.2855 52.1276C72.2169 46.2819 67.3535 41.5752 61.4104 38.6997C58.7386 37.4271 55.9034 36.5307 52.9856 36.0362C50.2783 35.5987 47.5292 35.4791 44.7941 35.6797C40.0835 36.047 35.4809 37.2794 31.2171 39.3154C27.9931 40.8405 24.9751 42.7676 22.235 45.0507C20.5023 46.4914 18.8777 48.0575 17.3745 49.7362C16.856 50.3065 16.4931 50.7731 16.2274 51.0712L15.7997 51.5249Z" fill="#161B46"/>
<path id="Vector_3" d="M19.8431 6.76309C19.4788 6.1529 18.95 5.6576 18.3174 5.33389C17.6847 5.01018 16.9737 4.87114 16.2657 4.93267C15.5577 4.99421 14.8814 5.25384 14.314 5.68184C13.7467 6.10985 13.3114 6.68893 13.0578 7.35282C12.9165 7.93426 12.6986 8.49434 12.4098 9.01835C11.4441 10.3145 9.04631 9.94508 8.26863 11.3773C7.49095 12.8095 9.3509 14.7213 8.9167 16.3933C8.5473 17.7283 6.82993 18.3375 6.4411 19.6336C5.92265 21.3964 8.04182 23.1397 7.53633 24.9024C7.09564 26.4189 4.94407 26.9827 4.62004 28.5186C4.25064 30.223 6.34388 31.6098 6.31148 33.3531C6.26611 35.5825 2.86378 36.8073 3.17485 39.0172C3.34983 40.2356 4.64595 41.0521 4.8663 42.2575C5.27458 44.5387 1.74263 46.1459 2.16387 48.4077C2.30645 49.477 3.34335 50.1834 4.25064 50.8314C5.15793 51.4795 6.03281 52.4062 5.85783 53.482C5.68286 54.5578 4.4321 55.1994 3.75811 56.1196C2.71473 57.5324 4.36729 61.2004 5.97449 61.9068L12.6495 56.9167C12.6495 56.9167 10.7378 55.3225 12.2348 53.8579C13.7318 52.3932 12.7662 51.7387 12.7079 50.6176C12.7079 50.6176 14.1984 51.8683 13.6476 53.2098C13.4384 53.7157 13.3608 54.2663 13.422 54.8102C13.4832 55.3542 13.6812 55.8738 13.9975 56.3205L24.1786 51.7841L25.2738 42.1214L19.8431 6.76309Z" fill="#161B46"/>
<path id="Vector_4" d="M4.99104 51.7062C4.77723 51.7441 4.55951 51.755 4.34298 51.7386C3.71825 51.6995 3.1108 51.5177 2.56728 51.2072C1.69226 50.7147 1.03336 49.9124 0.720305 48.9584C0.51833 48.3672 0.454044 47.7377 0.532361 47.1179C0.639156 46.4339 0.86975 45.775 1.21283 45.1737C1.54982 44.5256 1.96458 43.8776 2.27565 43.1842C2.63156 42.4662 2.76687 41.6589 2.6645 40.8641C2.52192 40.0475 1.89978 39.393 1.40725 38.6283C1.12208 38.2366 0.967848 37.7648 0.966563 37.2803C0.987761 37.029 1.06662 36.7861 1.197 36.5703C1.32738 36.3545 1.50578 36.1716 1.71832 36.036C2.13217 35.7686 2.56542 35.5325 3.01445 35.3296C3.44824 35.1382 3.81737 34.8254 4.07727 34.4288C4.18486 34.2181 4.24892 33.9878 4.26562 33.7517C4.28232 33.5157 4.25133 33.2787 4.17449 33.0549C4.03607 32.5762 3.8169 32.1248 3.52642 31.7199C3.23479 31.3051 2.87836 30.8969 2.61265 30.4238C2.29541 29.9702 2.08897 29.4486 2.00995 28.9008C1.96371 28.3268 2.14268 27.7574 2.50896 27.3131C2.86787 26.8949 3.2771 26.5227 3.72732 26.2049C4.17837 25.91 4.59754 25.569 4.97808 25.1874C5.34614 24.8299 5.56401 24.3455 5.58726 23.833C5.56011 23.3203 5.41365 22.821 5.15954 22.3748C4.92623 21.9147 4.64109 21.4675 4.41427 20.9944C4.15489 20.5213 4.03574 19.984 4.07079 19.4456C4.09584 19.1775 4.17522 18.9173 4.3041 18.6809C4.43813 18.4485 4.59674 18.2313 4.77718 18.0328C5.49005 17.3134 6.39086 16.8209 6.77322 15.9784C6.94919 15.5705 7.00538 15.121 6.93524 14.6823C6.86843 14.2397 6.75548 13.8053 6.59824 13.3862C6.23995 12.5705 6.07154 11.6842 6.10571 10.7939C6.1561 10.3551 6.34971 9.94511 6.65657 9.62741C6.95095 9.32252 7.31938 9.09923 7.72587 8.97934C8.49707 8.74604 9.26178 8.71364 9.94873 8.55162C10.6129 8.44081 11.2079 8.07591 11.6078 7.53416C11.9642 7.00923 12.1521 6.41301 12.5021 5.93992C12.9924 5.28889 13.681 4.81485 14.4642 4.58925C15.2474 4.36365 16.0826 4.39872 16.8441 4.68916C16.9942 4.75161 17.1393 4.82527 17.2783 4.9095L17.4144 5.00023C17.4144 5.00023 17.22 4.88358 16.8247 4.73452C16.2448 4.53123 15.6234 4.47555 15.0166 4.57251C14.5397 4.63799 14.0812 4.79989 13.669 5.04836C13.2567 5.29682 12.8994 5.62663 12.6188 6.01769C12.2882 6.47782 12.1068 7.06756 11.7374 7.62489C11.5335 7.91349 11.2745 8.15885 10.9753 8.34683C10.6761 8.53481 10.3426 8.66167 9.9941 8.72012C9.28123 8.90158 8.52299 8.93398 7.7842 9.1608C7.41205 9.26594 7.07295 9.46449 6.79914 9.73758C6.52611 10.0246 6.35528 10.3936 6.31309 10.7874C6.2863 11.6505 6.45698 12.5083 6.8121 13.2954C6.97046 13.7329 7.08763 14.1842 7.16206 14.6434C7.23957 15.1299 7.17894 15.6284 6.98708 16.0821C6.55288 17.0218 5.61967 17.5143 4.95216 18.2078C4.7838 18.3787 4.6379 18.5703 4.51796 18.7781C4.4077 18.9787 4.33728 19.1988 4.31057 19.4261C4.28504 19.9201 4.39722 20.4115 4.63461 20.8454C4.85495 21.299 5.13362 21.7397 5.37989 22.2193C5.65467 22.6985 5.81233 23.2359 5.84001 23.7876C5.81539 24.3589 5.58525 24.902 5.19194 25.317C4.79475 25.706 4.36066 26.0555 3.89581 26.3604C3.44027 26.6865 3.02861 27.0698 2.67097 27.501C2.34263 27.8955 2.18003 28.4019 2.21733 28.9138C2.29667 29.4211 2.48939 29.904 2.78114 30.3266C3.05981 30.7673 3.39033 31.1626 3.69492 31.6227C4.00248 32.0521 4.2368 32.5295 4.38835 33.0355C4.47295 33.2898 4.50564 33.5585 4.48449 33.8256C4.46334 34.0928 4.38877 34.353 4.26521 34.5908C3.98323 35.0272 3.58008 35.3717 3.10518 35.5824C2.67303 35.7825 2.25513 36.012 1.85442 36.2693C1.67042 36.3861 1.51609 36.5441 1.40362 36.7308C1.29115 36.9175 1.22362 37.1278 1.20635 37.3451C1.21293 37.7667 1.34863 38.1761 1.59519 38.5181C2.06179 39.2569 2.70986 39.9374 2.89131 40.8317C2.99903 41.6671 2.8546 42.5157 2.47655 43.2684C2.15252 44.0007 1.73129 44.6293 1.40077 45.2644C1.06088 45.8493 0.828236 46.4901 0.713818 47.1568C0.637613 47.7534 0.692912 48.3595 0.875834 48.9325C1.17313 49.86 1.80032 50.6463 2.63857 51.1424C3.171 51.4513 3.76303 51.6435 4.37538 51.7062C4.7707 51.7192 4.99104 51.6932 4.99104 51.7062Z" fill="#161B46"/>
<path id="Vector_5" d="M5.29809 59.0163C5.24939 58.9888 5.20377 58.9563 5.162 58.9191C5.04237 58.7991 4.96892 58.6408 4.95461 58.4719C4.9298 58.2008 4.99102 57.9287 5.12959 57.6943C5.33405 57.3803 5.64456 57.1503 6.00448 57.0462C6.39332 56.9036 6.85345 56.8518 7.30061 56.7351C7.55989 56.6914 7.80794 56.5967 8.03041 56.4566C8.25289 56.3164 8.44537 56.1336 8.59674 55.9186C8.66346 55.7952 8.70212 55.6586 8.70996 55.5186C8.7178 55.3786 8.69463 55.2385 8.6421 55.1085C8.51768 54.823 8.35646 54.555 8.16253 54.3114C7.94285 54.0351 7.79781 53.7071 7.74129 53.3587C7.71472 52.9852 7.80779 52.6129 8.007 52.2959C8.18197 51.9654 8.40232 51.6478 8.59674 51.3368C8.80449 51.0293 8.92335 50.6705 8.94021 50.2999C8.90838 49.9145 8.73528 49.5544 8.45416 49.2889C8.18198 48.9908 7.85146 48.7251 7.55983 48.3945C7.38656 48.2304 7.25544 48.0269 7.17759 47.8012C7.09975 47.5756 7.07748 47.3345 7.11267 47.0984C7.1518 46.853 7.26747 46.6261 7.44317 46.4503C7.61644 46.2863 7.81298 46.1487 8.02644 46.0421C8.44768 45.8347 8.88836 45.6856 9.32257 45.5042C9.7514 45.3458 10.1297 45.075 10.4178 44.72C10.5429 44.5313 10.6256 44.3177 10.6602 44.094C10.6949 43.8702 10.6807 43.6416 10.6187 43.4239C10.4854 42.9508 10.3141 42.4892 10.1067 42.0435C9.88338 41.5722 9.72427 41.0731 9.63363 40.5595C9.58158 40.0182 9.67323 39.4727 9.89934 38.9782C10.3141 37.9996 11.027 37.1506 11.2473 36.1267C11.3497 35.6129 11.279 35.0797 11.0464 34.6102C10.7988 34.1213 10.5263 33.6454 10.2299 33.1845C9.90738 32.7072 9.70913 32.157 9.65307 31.5838C9.65183 31.0061 9.8537 30.4464 10.2234 30.0025C10.5539 29.5553 10.9427 29.1794 11.2732 28.7712C11.6123 28.3972 11.8371 27.9339 11.9213 27.4362C11.951 26.9397 11.8265 26.4463 11.5649 26.0234C11.3251 25.5827 11.027 25.1679 10.7742 24.7273C10.4968 24.2842 10.3487 23.7724 10.3465 23.2497C10.3904 22.743 10.5645 22.2563 10.852 21.8369C11.1112 21.4221 11.3899 21.0398 11.5908 20.6315C11.8063 20.2358 11.8729 19.776 11.7787 19.3354C11.5908 18.4799 10.9233 17.793 10.7613 16.8986C10.7184 16.675 10.721 16.4449 10.7689 16.2223C10.8167 15.9996 10.9089 15.7888 11.0399 15.6025C11.2857 15.2714 11.5636 14.9653 11.8695 14.6887C12.1537 14.457 12.4065 14.189 12.6212 13.8916C12.794 13.5772 12.8895 13.2263 12.8999 12.8677C12.8999 12.1548 12.7638 11.4679 12.8092 10.7939C12.8494 10.1628 13.0429 9.55108 13.373 9.01171C13.6321 8.57965 13.9767 8.20504 14.3856 7.91085C14.7946 7.61666 15.2593 7.40907 15.7514 7.30082C16.3726 7.16411 17.0179 7.18191 17.6307 7.35266C17.8413 7.4116 18.0438 7.4965 18.2334 7.60541C18.2334 7.60541 18.0261 7.5082 17.5854 7.40451C16.981 7.25465 16.3492 7.25465 15.7449 7.40451C15.2696 7.51636 14.8218 7.72332 14.4286 8.01291C14.0355 8.30249 13.705 8.66871 13.4572 9.08947C13.1472 9.61163 12.9672 10.2006 12.9323 10.8068C12.9323 11.4549 13.0619 12.103 13.0425 12.8806C13.037 13.2703 12.9369 13.6529 12.7508 13.9953C12.5394 14.3319 12.282 14.6372 11.9861 14.9026C11.6901 15.1699 11.423 15.4675 11.189 15.7905C10.9608 16.1189 10.8722 16.5244 10.9427 16.9181C11.0853 17.7346 11.7528 18.4086 11.9796 19.3483C12.0738 19.8312 12.0007 20.3318 11.7722 20.7676C11.5649 21.2018 11.2797 21.5906 11.0335 21.9989C10.766 22.3826 10.603 22.8293 10.5604 23.295C10.5694 23.7734 10.7108 24.24 10.9686 24.643C11.2084 25.0772 11.5065 25.492 11.7593 25.9391C12.0491 26.406 12.183 26.953 12.1416 27.501C12.0511 28.048 11.8034 28.5569 11.4288 28.9656C11.0853 29.3804 10.6965 29.7562 10.3854 30.1839C10.0503 30.5839 9.86473 31.0879 9.86046 31.6097C9.92046 32.1408 10.1072 32.6498 10.4048 33.0938C10.708 33.5597 10.9849 34.0422 11.2344 34.5389C11.4842 35.0562 11.5614 35.64 11.4547 36.2045C11.2084 37.3256 10.4826 38.1487 10.0873 39.1078C9.87591 39.5607 9.79083 40.0622 9.84102 40.5595C9.92367 41.053 10.0741 41.5328 10.2882 41.9852C10.5013 42.4426 10.6747 42.9174 10.8066 43.4044C10.8774 43.655 10.8931 43.918 10.8529 44.1752C10.8126 44.4325 10.7172 44.678 10.5733 44.895C10.2568 45.2816 9.84294 45.5769 9.37441 45.7504C8.94021 45.9384 8.49953 46.081 8.07828 46.2819C7.88024 46.3425 7.70217 46.4553 7.56276 46.6084C7.42335 46.7616 7.32774 46.9494 7.28597 47.1523C7.24421 47.3551 7.25783 47.5655 7.3254 47.7613C7.39297 47.9571 7.512 48.131 7.67 48.2649C7.94219 48.576 8.2727 48.8417 8.55784 49.1593C8.86827 49.4618 9.05729 49.8675 9.08926 50.2999C9.07321 50.7087 8.94054 51.1045 8.70691 51.4404C8.50601 51.771 8.28566 52.0885 8.11717 52.3866C7.93257 52.6735 7.84405 53.0117 7.86442 53.3522C7.91087 53.6729 8.04296 53.9752 8.24678 54.2271C8.44521 54.4841 8.61068 54.765 8.7393 55.0631C8.79664 55.213 8.82056 55.3736 8.80936 55.5336C8.79817 55.6937 8.75214 55.8494 8.6745 55.9898C8.51705 56.2195 8.31471 56.4148 8.07969 56.564C7.84467 56.7133 7.58185 56.8134 7.30709 56.8583C6.81456 56.9684 6.36739 57.0138 6.01096 57.1434C5.66734 57.2339 5.36808 57.4457 5.16847 57.7396C5.0299 57.9579 4.96201 58.2136 4.97405 58.4719C4.98943 58.5796 5.02598 58.6831 5.08159 58.7765C5.13721 58.87 5.21079 58.9515 5.29809 59.0163Z" fill="#737690"/>
<path id="Vector_6" d="M17.2106 102.715C20.2371 105.956 30.0682 109.501 30.0682 109.501L25.6614 102.126L20.2111 77.402L16.595 54.1365C16.2968 54.5059 7.52206 60.0922 6.22593 63.6889C4.9298 67.2857 7.15266 83.902 7.52206 86.4425C9.01852 92.727 12.3988 98.4046 17.2106 102.715Z" fill="#ABE8FF"/>
<path id="Vector_7" d="M21.8859 46.1135L21.1989 50.4361L14.7183 55.6206C13.8099 62.1563 13.7773 68.7839 14.6211 75.3282C14.6211 75.3282 24.0958 101.017 24.342 102.139C24.7698 104.219 30.0904 109.501 30.0904 109.501C30.0904 109.501 37.3033 112.022 48.3593 109.112C58.6894 106.39 66.6282 97.8225 67.7558 96.7986C68.8835 95.7746 72.2404 91.0891 72.2404 91.0891L59.7263 65.523L59.2273 48.116L46.0263 44.7267L41.5417 41.2595L21.8859 46.1135Z" fill="#ABE8FF"/>
<path id="Vector_8" d="M59.013 48.1418C59.013 48.1418 66.3231 50.6758 68.2349 55.0632C70.1467 59.4506 76.6597 77.9593 76.8088 81.7699C76.8088 82.2818 74.1647 90.1299 72.0261 91.4131C69.1811 93.124 64.8974 89.2356 64.8974 89.2356L61.9292 84.401L62.0913 79.3332L58.7148 65.8405L59.013 48.1418Z" fill="#ABE8FF"/>
<path id="Vector_9" d="M22.168 48.2389L37.2614 66.7346L39.3157 49.6258L42.1737 41.2009L22.5179 46.0614L22.168 48.2389Z" fill="#A36957"/>
<path id="Vector_10" d="M37.1898 67.3116C37.1378 67.2616 37.0902 67.2074 37.0472 67.1496L36.6649 66.6506C36.3279 66.2163 35.8353 65.5812 35.1873 64.7971C33.4266 62.6456 31.5212 60.6168 29.4843 58.7247L29.7046 58.634C29.6463 61.1355 29.575 63.9481 29.5102 66.9098C29.5102 67.1755 29.5102 67.4347 29.5102 67.6745V68.2577L29.251 67.7328C26.9374 62.9695 24.8506 58.6599 23.3342 55.5687L21.5779 51.8941L21.1113 50.8896C21.0542 50.7749 21.0065 50.6557 20.9688 50.5332C21.0448 50.6364 21.1099 50.7471 21.1632 50.8637C21.2928 51.11 21.4613 51.4405 21.6751 51.8423L23.5092 55.4844L29.5102 67.6097L29.238 67.668C29.238 67.4282 29.238 67.1625 29.238 66.9033C29.3158 63.9416 29.3871 61.129 29.4584 58.6275V58.3359L29.6658 58.5368C31.7031 60.4448 33.5923 62.5051 35.3169 64.6999C35.9649 65.5035 36.4186 66.1515 36.7361 66.6052L37.0861 67.1236C37.1298 67.1808 37.1647 67.2441 37.1898 67.3116Z" fill="#161B46"/>
<path id="Vector_11" d="M58.6891 80.6423C58.7409 80.6942 54.3341 85.4121 48.845 91.1798C43.3559 96.9476 38.8519 101.549 38.7935 101.516C38.7352 101.484 43.1356 96.7726 48.6441 91.0114C54.1527 85.2501 58.6373 80.6423 58.6891 80.6423Z" fill="#161B46"/>
<path id="Vector_12" d="M50.4986 104.446C50.3171 103.884 50.1742 103.31 50.0709 102.728C49.8247 101.672 49.4553 100.214 48.9433 98.639C48.4313 97.0642 47.874 95.6643 47.4528 94.6663C47.2092 94.1333 46.9929 93.5882 46.8047 93.0332C47.1437 93.5167 47.4284 94.0362 47.6536 94.5821C48.265 95.8712 48.7932 97.1981 49.2349 98.5547C49.6629 99.9061 50.007 101.283 50.2653 102.676C50.3992 103.257 50.4773 103.85 50.4986 104.446Z" fill="#161B46"/>
<path id="Vector_13" d="M13.4891 74.4209C12.2178 73.7273 10.9926 72.9523 9.8211 72.1009C8.59589 71.3295 7.42254 70.4787 6.30859 69.554C7.58006 70.2449 8.80533 71.0178 9.97664 71.8675C11.2042 72.6377 12.3778 73.4908 13.4891 74.4209Z" fill="#161B46"/>
<path id="Vector_14" d="M72.0306 92.4109C71.9661 92.4193 71.9007 92.4193 71.8362 92.4109H71.2724C70.9705 92.4153 70.6689 92.3915 70.3716 92.3396C69.9693 92.2856 69.5725 92.1967 69.1856 92.0739C68.1422 91.7324 67.1819 91.1761 66.3665 90.4408C65.325 89.4916 64.5005 88.3289 63.9492 87.032C63.4373 84.9517 62.867 82.6446 62.2643 80.2208L59.3933 68.3289C59.0434 66.8318 58.7453 65.607 58.5573 64.7191C58.4666 64.3173 58.3953 63.9868 58.3435 63.7341C58.3154 63.6212 58.2959 63.5064 58.2852 63.3906C58.336 63.4956 58.373 63.6067 58.3953 63.7211C58.4666 63.9739 58.5509 64.2914 58.661 64.6932L59.5878 68.277C60.3525 71.3424 61.3894 75.5224 62.5365 80.1366C63.1262 82.5668 63.69 84.8804 64.1955 86.9542C64.725 88.2178 65.5157 89.3552 66.5156 90.2917C67.3025 91.0185 68.2284 91.5784 69.2374 91.9378C70.1448 92.2129 71.0833 92.3719 72.0306 92.4109Z" fill="#161B46"/>
<path id="Vector_15" d="M18.6237 92.7484C18.2694 92.8467 17.9104 92.9268 17.5479 92.9882C15.8255 93.4159 14.3129 94.4457 13.2836 95.8915C12.8883 96.4489 12.7069 96.8312 12.668 96.8118C12.7417 96.4403 12.8942 96.0889 13.1151 95.7813C13.5997 95.0098 14.2398 94.3476 14.9945 93.8372C15.7485 93.3207 16.6032 92.9695 17.5025 92.8067C17.8675 92.7056 18.2502 92.6857 18.6237 92.7484Z" fill="#161B46"/>
<path id="Vector_16" d="M18.727 92.1259C17.0944 92.9713 15.2838 93.4156 13.4453 93.422C13.4453 93.3377 14.6442 93.1692 16.0959 92.8063C17.5476 92.4434 18.6946 92.0481 18.727 92.1259Z" fill="#161B46"/>
<path id="Vector_17" d="M47.3716 91.9576C47.3118 91.8891 47.2617 91.8128 47.2225 91.7307L46.8402 91.0827C46.5097 90.4994 46.056 89.644 45.5117 88.5747C44.4164 86.4425 42.9972 83.4485 41.6233 80.0721C40.2494 76.6956 39.1023 73.5914 38.383 71.2973C38.0136 70.1567 37.7349 69.23 37.5405 68.5819C37.4627 68.2903 37.3914 68.044 37.3396 67.8366C37.3113 67.7524 37.2918 67.6656 37.2812 67.5774C37.2812 67.5774 37.3266 67.6552 37.3914 67.8237L37.6506 68.5495C37.8775 69.1976 38.195 70.1308 38.5709 71.2325C39.3615 73.4877 40.5151 76.592 41.9019 79.9619C43.2888 83.3318 44.7016 86.3324 45.745 88.4839L46.9892 91.0308L47.3262 91.7243C47.3457 91.8668 47.3846 91.9511 47.3716 91.9576Z" fill="#161B46"/>
<g id="Group" opacity="0.3">
<path id="Vector_18" opacity="0.3" d="M38.9453 101.231C46.8776 96.9084 53.948 89.9482 57.7845 81.7891L38.9453 101.231Z" fill="#2D3259"/>
</g>
<g id="Group_2" opacity="0.3">
<path id="Vector_19" opacity="0.3" d="M12.6719 96.8435C14.2207 93.5125 17.2731 92.5922 20.2477 92.6376C20.2754 92.4634 20.2387 92.2852 20.1444 92.1361C20.0502 91.987 19.905 91.8773 19.7358 91.8275C19.3939 91.7369 19.0343 91.7369 18.6924 91.8275C17.2491 92.0358 15.8576 92.5128 14.5901 93.2338C14.0079 93.61 13.5306 94.1278 13.203 94.7387C12.8755 95.3497 12.7083 96.0337 12.7172 96.7269" fill="#2D3259"/>
</g>
<g id="Group_3" opacity="0.3">
<path id="Vector_20" opacity="0.3" d="M21.0352 50.624C23.0539 58.0121 26.1923 65.0474 30.3414 71.4852C31.8706 69.1166 32.5197 66.2863 32.1754 63.4881C33.3276 64.9866 34.9105 66.0969 36.7118 66.6701C34.7016 63.7462 32.3425 61.0781 29.6868 58.7248C29.6868 58.7248 29.447 68.0051 29.46 67.7653C26.5955 62.017 23.8154 56.3594 21.0352 50.624Z" fill="#2D3259"/>
</g>
<path id="Vector_21" d="M30.3446 107.517C30.3446 107.517 30.2863 107.427 30.2085 107.232C30.1308 107.038 30.0141 106.72 29.878 106.377C29.6123 105.638 29.1911 104.569 28.6661 103.253C27.6098 100.661 26.0091 97.0641 24.1621 93.1562C22.3151 89.2484 20.669 85.6905 19.6257 83.0529C19.0942 81.7568 18.686 80.668 18.4332 79.9098C18.3231 79.5663 18.2258 79.2617 18.1481 79.0479C18.1051 78.9492 18.0788 78.8441 18.0703 78.7368C18.1279 78.8265 18.1757 78.9221 18.2129 79.022L18.5564 79.8645C18.848 80.6032 19.2887 81.6596 19.8525 82.9622C20.9607 85.5545 22.6327 89.0994 24.4797 93.0137C26.3266 96.928 27.9014 100.512 28.8995 103.169C29.3985 104.497 29.7873 105.58 30.0206 106.338L30.2863 107.206C30.3215 107.306 30.3411 107.411 30.3446 107.517Z" fill="#161B46"/>
<path id="Vector_22" d="M19.3662 82.23C19.3662 82.2818 18.6533 82.0744 17.5192 81.8865C14.5402 81.3964 11.4842 81.7188 8.67312 82.8197C7.59733 83.241 6.96222 83.5844 6.9363 83.5391C6.91038 83.4937 7.07239 83.4095 7.35106 83.241C7.74378 82.9967 8.15305 82.7802 8.5759 82.5929C11.3968 81.3439 14.5388 81.0129 17.5581 81.6467C18.0115 81.737 18.4577 81.8605 18.8931 82.0161C19.2041 82.1328 19.3727 82.2041 19.3662 82.23Z" fill="white"/>
<path id="Vector_23" d="M25.1197 95.3986C23.2189 95.7085 21.367 96.2663 19.6112 97.0577C17.9068 97.9596 16.3255 99.0769 14.9062 100.382C15.2189 99.8952 15.6035 99.4582 16.0468 99.0861C18.095 97.1911 20.6552 95.9403 23.4088 95.4894C23.9712 95.3723 24.5481 95.3417 25.1197 95.3986Z" fill="white"/>
<path id="Vector_24" d="M40.6645 78.6527C40.7099 78.7369 36.6271 80.9144 31.5527 83.5197C26.4784 86.1249 22.3243 88.1663 22.2854 88.0561C22.2465 87.9459 26.3229 85.7944 31.3972 83.1891C36.4715 80.5839 40.6256 78.5684 40.6645 78.6527Z" fill="white"/>
<path id="Vector_25" d="M59.3387 68.7373C59.3387 68.828 54.9513 70.1047 49.4752 71.5887C43.9991 73.0728 39.5468 74.181 39.5274 74.1227C39.508 74.0643 43.9148 72.7488 49.3909 71.2647C54.8671 69.7806 59.3387 68.6465 59.3387 68.7373Z" fill="white"/>
<path id="Vector_26" d="M76.9423 81.2126C76.9423 81.2126 76.7997 81.3617 76.5081 81.582C76.0987 81.8905 75.6652 82.1657 75.2119 82.4051C74.5254 82.761 73.81 83.058 73.0733 83.2929C72.1663 83.5663 71.2354 83.7529 70.2931 83.8502C69.3492 83.9419 68.3986 83.9419 67.4546 83.8502C66.6881 83.76 65.9312 83.6017 65.1929 83.3772C64.6943 83.2322 64.2087 83.0458 63.7412 82.8198C63.5619 82.7496 63.3937 82.6535 63.2422 82.5347C63.2422 82.4764 64.0004 82.8198 65.2577 83.1503C65.989 83.3401 66.7346 83.4701 67.487 83.5392C68.4098 83.6204 69.3379 83.6204 70.2607 83.5392C71.181 83.4436 72.0916 83.2702 72.9826 83.0207C73.7085 82.8074 74.4169 82.5388 75.1017 82.2171C76.2488 81.6339 76.9099 81.1608 76.9423 81.2126Z" fill="white"/>
<path id="Vector_27" d="M66.9824 91.0115C66.8268 91.213 66.646 91.3938 66.4445 91.5494C66.0881 91.8799 65.5502 92.34 64.8632 92.8455C63.0642 94.2386 61.1474 95.4724 59.1343 96.533C57.1196 97.581 55.0159 98.4484 52.8481 99.1252C52.0186 99.3845 51.3316 99.5724 50.8586 99.6761C50.617 99.7532 50.3665 99.7989 50.1133 99.8122C50.3399 99.6982 50.5792 99.6112 50.8261 99.5529C51.2863 99.4039 51.9538 99.19 52.7703 98.9049C57.0423 97.4197 61.0697 95.3077 64.7206 92.6381C65.4205 92.1261 65.9779 91.7049 66.3602 91.4068C66.5529 91.2532 66.7615 91.1206 66.9824 91.0115Z" fill="white"/>
<path id="Vector_28" d="M49.1963 102.553C48.9951 102.706 48.7778 102.836 48.5482 102.942C48.101 103.175 47.4465 103.48 46.604 103.836C42.291 105.688 37.714 106.852 33.04 107.284C32.1457 107.362 31.4199 107.401 30.9209 107.414C30.6601 107.439 30.3975 107.439 30.1367 107.414C30.3881 107.344 30.6471 107.305 30.9079 107.297C31.4069 107.252 32.1263 107.174 33.0141 107.064C35.3265 106.775 37.6186 106.342 39.8771 105.768C42.1324 105.191 44.3489 104.473 46.5133 103.616C47.3493 103.292 48.0168 103.013 48.4575 102.819C48.6914 102.699 48.9397 102.61 49.1963 102.553Z" fill="white"/>
<path id="Vector_29" d="M24.2248 63.4102C23.5815 63.8642 22.9106 64.2776 22.2157 64.648C20.965 65.3868 19.2282 66.4107 17.3358 67.5707C15.4435 68.7308 13.752 69.8195 12.5272 70.6101C11.8867 71.0698 11.213 71.4813 10.5117 71.8415C10.6572 71.6868 10.8203 71.5498 10.9978 71.4332C11.3218 71.1804 11.7949 70.8305 12.3911 70.4157C13.59 69.5732 15.262 68.4715 17.1608 67.2856C19.0597 66.0996 20.8159 65.1275 22.0991 64.4406C22.7472 64.0971 23.2721 63.8314 23.6415 63.6499C23.8241 63.5438 24.0203 63.4632 24.2248 63.4102Z" fill="white"/>
<path id="Vector_30" d="M25.4551 54.1558C25.449 54.6516 25.3293 55.1393 25.1051 55.5815C24.8199 56.3333 24.5218 56.923 24.457 56.8777C24.4676 56.3817 24.5894 55.8945 24.8135 55.4519C25.0727 54.7196 25.3708 54.1234 25.4551 54.1558Z" fill="white"/>
<path id="Vector_31" d="M56.2055 53.2357C56.2055 53.32 52.3172 54.5902 47.4372 56.0678C42.5573 57.5453 38.5977 58.6665 38.5977 58.6082C38.5977 58.5498 42.486 57.2537 47.366 55.7761C52.2459 54.2985 56.1796 53.145 56.2055 53.2357Z" fill="white"/>
<g id="Group_4" opacity="0.3">
<path id="Vector_32" opacity="0.3" d="M19.2383 82.3401L30.6053 107.965C30.2451 98.2808 26.1752 89.1064 19.2383 82.3401Z" fill="#2D3259"/>
</g>
<path id="Vector_33" d="M35.3554 11.2995L20.1843 8.57766C15.3821 8.40269 12.6149 14.488 12.6408 19.2966C12.6732 24.6367 12.9195 31.1497 13.8203 35.077C15.6349 42.9639 21.8174 43.5602 21.8174 43.5602L22.1673 48.2327L37.9153 48.4854L38.0384 13.9955C38.0085 13.2923 37.7166 12.6257 37.2201 12.1269C36.7236 11.628 36.0585 11.3329 35.3554 11.2995Z" fill="#A36957"/>
<path id="Vector_34" d="M16.5627 23.963C16.5761 24.2301 16.6948 24.4809 16.8928 24.6607C17.0908 24.8405 17.3519 24.9345 17.619 24.9221C17.7495 24.923 17.8788 24.8979 17.9995 24.8484C18.1202 24.7989 18.2298 24.7259 18.3221 24.6336C18.4143 24.5414 18.4873 24.4317 18.5368 24.3111C18.5864 24.1904 18.6114 24.061 18.6106 23.9306C18.5939 23.6642 18.4744 23.4146 18.2774 23.2345C18.0803 23.0544 17.8211 22.9577 17.5542 22.965C17.423 22.9632 17.2927 22.9879 17.1712 23.0375C17.0497 23.0871 16.9394 23.1607 16.8469 23.2538C16.7544 23.3469 16.6815 23.4577 16.6327 23.5795C16.5839 23.7013 16.5601 23.8318 16.5627 23.963Z" fill="#161B46"/>
<path id="Vector_35" d="M14.4137 22.0638C14.5498 22.1934 15.2821 21.5648 16.3579 21.4935C17.4337 21.4222 18.3021 21.9148 18.4123 21.7722C18.5225 21.6296 18.3216 21.4741 17.9522 21.2408C17.4532 20.9472 16.8771 20.8116 16.2996 20.8519C15.7231 20.8953 15.1756 21.1225 14.7378 21.5C14.4461 21.7592 14.3489 22.012 14.4137 22.0638Z" fill="#161B46"/>
<path id="Vector_36" d="M26.9338 23.9632C26.9472 24.2302 27.0659 24.4811 27.2639 24.6609C27.4619 24.8406 27.723 24.9346 27.9901 24.9223C28.1222 24.9258 28.2536 24.9026 28.3766 24.8543C28.4995 24.8059 28.6115 24.7334 28.7058 24.6409C28.8002 24.5483 28.8749 24.4378 28.9256 24.3158C28.9764 24.1938 29.002 24.0629 29.0011 23.9308C28.9844 23.6643 28.865 23.4148 28.6679 23.2346C28.4709 23.0545 28.2116 22.9579 27.9448 22.9651C27.8119 22.9607 27.6795 22.9834 27.5557 23.0318C27.4319 23.0802 27.3193 23.1534 27.2247 23.2468C27.1301 23.3402 27.0555 23.4518 27.0055 23.575C26.9555 23.6982 26.9311 23.8303 26.9338 23.9632Z" fill="#161B46"/>
<path id="Vector_37" d="M25.2807 22.0443C25.4168 22.1675 26.1556 21.5453 27.2573 21.474C28.359 21.4027 29.2015 21.8953 29.3116 21.7527C29.4218 21.6101 29.2209 21.4546 28.8515 21.2213C28.3503 20.9275 27.772 20.792 27.1925 20.8324C26.6174 20.874 26.0715 21.1015 25.6371 21.4805C25.3131 21.7397 25.2159 21.9925 25.2807 22.0443Z" fill="#161B46"/>
<path id="Vector_38" d="M21.8464 30.4821C21.2549 30.3375 20.6472 30.27 20.0383 30.2812C19.7532 30.2812 19.4875 30.2358 19.3903 30.0479C19.3492 29.7583 19.3943 29.4631 19.5199 29.1989C19.7402 28.5055 19.967 27.7732 20.2068 27.002C21.153 23.8783 21.814 21.312 21.6909 21.2796C21.5678 21.2472 20.6929 23.7422 19.7467 26.8724C19.5199 27.6436 19.2995 28.3759 19.0986 29.0758C18.9462 29.4281 18.9232 29.8229 19.0338 30.1905C19.0801 30.2872 19.1481 30.372 19.2323 30.4383C19.3166 30.5046 19.415 30.5506 19.5199 30.5728C19.6802 30.6016 19.8432 30.6124 20.0059 30.6052C20.6222 30.6436 21.2408 30.6022 21.8464 30.4821Z" fill="#161B46"/>
<path id="Vector_39" d="M21.8047 43.5601C25.5647 43.3615 29.1953 42.1207 32.2904 39.9763C32.2904 39.9763 29.9768 45.6469 21.9213 45.4525L21.8047 43.5601Z" fill="#7C3B29"/>
<path id="Vector_40" d="M24.5621 19.2123C24.6917 19.504 25.7805 19.2901 27.0831 19.3549C28.3857 19.4197 29.455 19.7049 29.6106 19.4262C29.6754 19.2901 29.4745 19.0179 29.0338 18.7781C28.4484 18.4568 27.7958 18.2771 27.1285 18.2532C26.4603 18.221 25.794 18.3476 25.1843 18.6226C24.7306 18.8235 24.5103 19.0763 24.5621 19.2123Z" fill="#161B46"/>
<path id="Vector_41" d="M14.622 19.3678C14.8358 19.6076 15.5746 19.2965 16.4884 19.2188C17.4022 19.141 18.1798 19.2706 18.3419 18.9984C18.4131 18.8688 18.2706 18.6226 17.9206 18.4087C17.4485 18.1486 16.9071 18.0421 16.3717 18.1041C15.8382 18.1544 15.3323 18.3644 14.9201 18.7068C14.622 18.9855 14.5442 19.2512 14.622 19.3678Z" fill="#161B46"/>
<path id="Vector_42" d="M18.2409 8.43499C17.7678 9.42653 19.699 11.2541 20.7424 11.604C21.7858 11.954 23.1208 11.7725 23.6846 12.7122C24.3327 13.7815 23.0365 15.5054 25.1881 16.6719C25.8686 17.0413 26.8731 16.2701 27.4434 16.795C28.1497 17.4431 27.2295 18.5642 27.2554 19.5169C27.3137 21.3833 30.7096 21.5259 30.9299 23.4053C31.0725 24.5653 29.7764 25.6735 30.23 26.7493C30.6837 27.8251 32.5436 27.7603 33.0037 28.862C33.5935 30.2812 31.1956 31.5125 31.4938 33.0161C31.7919 34.5196 34.2934 34.5066 34.7924 35.9453C35.2201 37.1701 33.8397 38.5376 34.3128 39.7235C34.8442 41.1104 37.1838 40.9095 37.8124 42.251C38.5706 43.8776 35.9978 45.7505 36.8727 47.3123C37.1643 47.8373 37.8318 48.0187 38.2271 48.4724C39.5233 49.937 39.3807 53.1255 38.0651 54.4022H39.0048C40.415 54.3791 41.7976 54.0072 43.0291 53.3197C44.2606 52.6321 45.3026 51.6503 46.0622 50.4619L46.8399 52.27C49.3414 51.4794 51.2921 49.8398 53.3205 48.1548C53.8191 47.7395 54.4103 47.4502 55.0443 47.3115C55.6782 47.1727 56.3362 47.1886 56.9627 47.3577L57.5135 47.5132C59.1855 47.6364 61.4019 46.8069 62.7823 45.8736C60.9353 45.5042 59.9438 43.4888 59.4836 41.6612C59.0235 39.8337 58.7448 37.7728 57.3645 36.5221C55.8674 35.1352 53.2817 34.8241 52.5882 32.9059C52.0503 31.3959 53.0548 29.6656 52.5882 28.1556C52.1216 26.6456 50.2876 25.8549 49.5877 24.3968C48.635 22.4137 50.0089 19.7891 48.7971 17.9162C47.5009 15.9201 43.956 16.2118 42.9645 14.0278C42.4136 12.8224 42.8608 11.1893 41.9081 10.269C41.1499 9.5367 39.8538 9.65335 39.0502 8.97288C37.8837 7.95542 38.454 5.86866 37.4365 4.70214C36.0561 3.12087 33.2306 4.51421 31.4614 3.40602C30.3467 2.69315 29.9773 1.1702 28.8691 0.444365C27.3721 -0.547172 25.4149 0.347155 23.7235 0.936893C22.4273 1.39054 21.0405 1.65624 19.7703 2.23302C19.1189 2.47421 18.524 2.84656 18.0223 3.32701C17.5207 3.80747 17.123 4.38579 16.854 5.02618C16.4004 6.3223 16.9642 8.03319 18.2797 8.48036" fill="#161B46"/>
<path id="Vector_43" d="M60.3027 39.4515L60.4323 39.5681C60.5166 39.6459 60.6462 39.769 60.8017 39.931C60.9976 40.131 61.1754 40.3478 61.3331 40.5791C61.5585 40.8948 61.7072 41.2587 61.7673 41.6419C61.7953 41.8856 61.7723 42.1324 61.6998 42.3666C61.6273 42.6009 61.5068 42.8176 61.3461 43.0028C61.252 43.1195 61.1355 43.2162 61.0035 43.287C60.8714 43.3579 60.7265 43.4016 60.5772 43.4155C60.428 43.4294 60.2775 43.4132 60.1346 43.3679C59.9917 43.3227 59.8594 43.2492 59.7454 43.1519C59.2799 42.6649 59.0099 42.0236 58.9872 41.3503C58.9453 40.6186 58.9453 39.8851 58.9872 39.1533C58.9872 38.3821 59.0908 37.585 59.201 36.749C59.2529 36.3343 59.3241 35.913 59.3954 35.4529C59.4761 35.0259 59.5023 34.5904 59.4732 34.1568C59.4645 33.9414 59.4069 33.7309 59.3047 33.5411C59.2025 33.3513 59.0585 33.1873 58.8835 33.0615C58.487 32.8484 58.0338 32.7646 57.5873 32.8218C57.0991 32.8788 56.6076 32.9026 56.1162 32.893C55.8517 32.8935 55.5902 32.8356 55.3505 32.7236C55.1109 32.6116 54.8988 32.4482 54.7294 32.245C54.4171 31.8058 54.2495 31.2803 54.2498 30.7415C54.2355 30.2094 54.2767 29.6772 54.3729 29.1537C54.4592 28.6354 54.4744 28.1078 54.4183 27.5854C54.3878 27.3296 54.3054 27.0826 54.1762 26.8598C54.0469 26.6369 53.8735 26.4428 53.6665 26.2893C53.2047 25.9998 52.7164 25.7546 52.2084 25.557C51.6656 25.3155 51.2123 24.9097 50.9123 24.3969C50.433 23.3194 50.2431 22.1355 50.3614 20.9622C50.3825 20.3884 50.3543 19.8138 50.2772 19.2448C50.203 18.6917 49.9963 18.1648 49.6745 17.7089C49.0264 16.8275 47.8988 16.4128 46.9008 15.9851C46.387 15.7736 45.898 15.5063 45.4426 15.1879C44.981 14.8695 44.6281 14.4171 44.4316 13.8918C44.3052 13.3753 44.2271 12.8481 44.1983 12.317C44.1814 11.8304 43.9825 11.3679 43.641 11.0209C43.2635 10.7324 42.8163 10.549 42.3449 10.4895C41.8547 10.4183 41.3728 10.2989 40.9062 10.133C40.4383 9.94943 40.0597 9.59174 39.8498 9.13503C39.6772 8.69666 39.5808 8.232 39.5647 7.76114C39.601 6.90396 39.446 6.04946 39.111 5.25961C38.6896 4.59377 38.0543 4.091 37.3094 3.83387C36.6318 3.58486 35.9184 3.44698 35.1967 3.42559C34.5098 3.42559 33.8617 3.42559 33.2525 3.37374C32.6838 3.36264 32.1175 3.29754 31.5611 3.17932C31.0913 3.06887 30.6412 2.88749 30.2261 2.64143C29.637 2.32111 29.1649 1.82183 28.8781 1.21569C28.7826 1.01145 28.7234 0.792159 28.7031 0.567627C28.7591 0.789196 28.8328 1.00591 28.9235 1.21569C29.2184 1.80146 29.69 2.27977 30.2714 2.5831C30.6766 2.81371 31.1133 2.984 31.5676 3.0886C32.1185 3.19679 32.6781 3.25535 33.2396 3.26357C33.8488 3.26357 34.4968 3.26357 35.1838 3.26357C35.9222 3.28038 36.6531 3.41605 37.3483 3.66537C38.1334 3.92293 38.8046 4.44524 39.2471 5.14296C39.6072 5.95807 39.7757 6.84485 39.7397 7.73521C39.7556 8.17964 39.8477 8.61804 40.0118 9.03134C40.2041 9.44211 40.5478 9.76258 40.971 9.92567C41.4233 10.082 41.89 10.1927 42.3643 10.2562C42.8828 10.3208 43.3749 10.5221 43.7901 10.8394C44.1788 11.2235 44.4099 11.7389 44.4381 12.2846C44.4664 12.8003 44.5423 13.3123 44.6649 13.8141C44.8349 14.302 45.1519 14.7254 45.5722 15.0259C46.0251 15.3341 46.5122 15.5886 47.0239 15.7842C47.5229 16.011 48.0413 16.2184 48.5404 16.497C49.0646 16.756 49.5249 17.1278 49.8883 17.5858C50.231 18.071 50.4531 18.6308 50.5364 19.2189C50.612 19.8033 50.6423 20.3926 50.6271 20.9816C50.502 22.1141 50.6809 23.2594 51.1456 24.2997C51.4188 24.7712 51.8371 25.1417 52.338 25.3561C52.8604 25.5644 53.3635 25.8181 53.8415 26.1143C54.0739 26.2871 54.2684 26.5056 54.4133 26.7564C54.5582 27.0071 54.6503 27.2848 54.684 27.5724C54.7417 28.1166 54.7242 28.6661 54.6322 29.2056C54.53 29.7112 54.4779 30.2256 54.4766 30.7415C54.4771 31.2341 54.6262 31.7152 54.9044 32.1218C55.0556 32.304 55.2446 32.4511 55.4584 32.5529C55.6721 32.6547 55.9054 32.7089 56.1422 32.7116C56.6225 32.7157 57.1028 32.6941 57.5808 32.6468C58.0751 32.5803 58.5776 32.6758 59.0131 32.919C59.2074 33.0645 59.3666 33.2519 59.4788 33.4673C59.5909 33.6827 59.6533 33.9205 59.6611 34.1632C59.6904 34.6125 59.6599 35.0636 59.5704 35.5047C59.4991 35.9389 59.4278 36.3537 59.376 36.8009C59.2593 37.6239 59.188 38.421 59.1427 39.1857C59.0973 39.9505 59.0714 40.6828 59.1103 41.3568C59.1408 41.9902 59.3958 42.5921 59.8296 43.0547C60.0461 43.2307 60.3231 43.3145 60.6008 43.288C60.8522 43.2495 61.0818 43.1232 61.2489 42.9316C61.4025 42.7553 61.5181 42.5492 61.5883 42.3261C61.6586 42.1031 61.682 41.8679 61.6572 41.6354C61.6029 41.266 61.4655 40.9137 61.2554 40.605C61.1035 40.3765 60.9345 40.1599 60.7499 39.9569L60.3999 39.5811C60.3416 39.5033 60.2962 39.4579 60.3027 39.4515Z" fill="#161B46"/>
<path id="Vector_44" d="M42.8356 51.0064C42.9055 50.9664 42.9793 50.9338 43.056 50.9092C43.2774 50.8269 43.4938 50.7317 43.704 50.624C44.0375 50.4657 44.3302 50.2329 44.5595 49.9436C44.7079 49.748 44.8013 49.5161 44.8298 49.2722C44.8583 49.0283 44.8209 48.7812 44.7215 48.5567C44.5763 48.3158 44.3444 48.1396 44.0734 48.0642C43.7753 47.967 43.4254 47.9281 43.1078 47.8114C42.9274 47.7561 42.763 47.6583 42.6282 47.5263C42.4905 47.3794 42.408 47.1893 42.3949 46.9884C42.429 46.5861 42.5675 46.1996 42.7967 45.8672C43.0175 45.5263 43.1531 45.1374 43.192 44.7331C43.2271 44.3049 43.1466 43.8752 42.9587 43.4888C42.7422 43.0805 42.409 42.746 42.0015 42.5279C41.5941 42.3097 41.1309 42.2178 40.6711 42.264H40.5739V42.1668C40.5625 41.448 40.7905 40.7458 41.2219 40.1707C41.6613 39.5934 42.0474 38.9773 42.3755 38.3302C42.5278 37.9957 42.6136 37.6347 42.6282 37.2674C42.6431 36.9006 42.5232 36.541 42.2912 36.2564C41.8052 35.6861 40.9951 35.5501 40.211 35.2066C39.7984 35.0433 39.4581 34.7375 39.2518 34.3447C39.0866 33.9284 39.0866 33.4648 39.2518 33.0485C39.5175 32.2255 40.0554 31.4867 40.0295 30.6507C39.9945 30.2358 39.8237 29.844 39.5435 29.536C39.2578 29.2092 38.9207 28.9312 38.5454 28.713C37.7283 28.3164 36.942 27.8593 36.193 27.3456C35.7183 26.9912 35.3907 26.4744 35.2727 25.8939C35.1919 25.3274 35.2474 24.7497 35.4347 24.2089C35.5838 23.6775 35.7717 23.1656 35.8754 22.6471C35.927 22.3957 35.9466 22.1387 35.9337 21.8824C35.9103 21.6334 35.8281 21.3935 35.694 21.1825C35.376 20.7686 34.9211 20.4814 34.4108 20.3724C33.91 20.2259 33.424 20.0328 32.9591 19.7956C32.7246 19.665 32.5214 19.4849 32.3636 19.2678C32.2058 19.0507 32.0972 18.8018 32.0454 18.5384C31.9739 18.0341 32.0047 17.5205 32.1361 17.0284C32.2333 16.5488 32.3564 16.0822 32.4148 15.6221C32.4915 15.1745 32.4513 14.7146 32.2981 14.2871C32.1265 13.8848 31.8373 13.5437 31.4686 13.3085C31.0986 13.0889 30.6993 12.9231 30.2826 12.816C29.4596 12.5956 28.6041 12.5308 27.8329 12.2457C27.4489 12.111 27.093 11.9067 26.7831 11.643C26.4956 11.383 26.2603 11.0707 26.0896 10.7227C25.7397 10.0747 25.5518 9.37476 25.2731 8.77854C25.0304 8.21163 24.6412 7.71953 24.1455 7.3528C23.751 7.05417 23.2962 6.84499 22.8127 6.73979C22.3293 6.63459 21.8287 6.6359 21.3458 6.74362C20.7319 6.88022 20.1644 7.17514 19.6997 7.59906C19.3822 7.89717 19.2591 8.09159 19.2461 8.08511C19.3628 7.89429 19.5044 7.71992 19.6673 7.56666C20.1282 7.11855 20.7013 6.80289 21.3264 6.65289C21.8231 6.53563 22.3394 6.52763 22.8396 6.62945C23.3398 6.73128 23.8118 6.94049 24.2232 7.24263C24.7331 7.62084 25.1352 8.12573 25.3897 8.70725C25.6814 9.30995 25.8758 10.0034 26.2128 10.6514C26.3742 10.9779 26.5938 11.2722 26.8608 11.5199C27.1539 11.7691 27.4929 11.9584 27.8589 12.0772C28.6041 12.3494 29.4401 12.4142 30.2956 12.6345C30.7329 12.7443 31.152 12.9167 31.5399 13.1465C31.9493 13.393 32.2728 13.7595 32.4666 14.1964C32.6345 14.6563 32.6813 15.1517 32.6027 15.6351C32.5444 16.1146 32.4212 16.5812 32.324 17.0543C32.2062 17.52 32.1776 18.0038 32.2398 18.4801C32.2854 18.7128 32.3817 18.9327 32.5217 19.1242C32.6616 19.3157 32.8419 19.4741 33.0499 19.5882C33.5068 19.8128 33.9815 19.9992 34.4691 20.1456C35.0031 20.2937 35.4713 20.618 35.7976 21.0658C35.952 21.3078 36.0454 21.5835 36.0698 21.8694C36.0861 22.1473 36.0665 22.4261 36.0115 22.6989C35.9013 23.2433 35.7134 23.7553 35.5643 24.2802C35.3913 24.786 35.3381 25.3251 35.4088 25.855C35.5239 26.3746 35.8231 26.835 36.2513 27.1511C36.9992 27.6612 37.7832 28.1161 38.5973 28.5121C38.9926 28.7446 39.349 29.0377 39.6536 29.3805C39.965 29.7292 40.1519 30.1714 40.185 30.6377C40.185 31.5969 39.6407 32.3421 39.4009 33.1133C39.2521 33.4812 39.2521 33.8925 39.4009 34.2604C39.5826 34.6053 39.8813 34.8741 40.2434 35.0186C40.6063 35.1871 40.9951 35.3038 41.371 35.4528C41.761 35.584 42.1142 35.8062 42.4014 36.1009C42.6629 36.4269 42.7965 36.837 42.7773 37.2545C42.7628 37.6482 42.6726 38.0355 42.5116 38.3951C42.1763 39.052 41.7815 39.6767 41.3321 40.2615C40.9133 40.7961 40.6852 41.4553 40.684 42.1344L40.5804 42.0501C41.0767 41.9984 41.5771 42.0982 42.0156 42.3366C42.454 42.5749 42.81 42.9405 43.0365 43.3851C43.2286 43.7844 43.3134 44.2268 43.2828 44.6688C43.2521 45.1108 43.1069 45.5372 42.8615 45.9061C42.644 46.215 42.508 46.574 42.4662 46.9495C42.4826 47.1157 42.5499 47.2727 42.6589 47.3992C42.768 47.5256 42.9134 47.6153 43.0754 47.6559C43.393 47.7725 43.7235 47.8179 44.0345 47.9151C44.1809 47.9486 44.3191 48.0109 44.441 48.0984C44.5629 48.186 44.6661 48.297 44.7446 48.4249C44.8231 48.5529 44.8752 48.6952 44.898 48.8436C44.9207 48.992 44.9136 49.1434 44.877 49.289C44.8307 49.5245 44.7309 49.7462 44.5854 49.9371C44.3454 50.2332 44.039 50.4685 43.6911 50.624C43.4192 50.7794 43.1327 50.9075 42.8356 51.0064Z" fill="#737690"/>
<path id="Vector_45" d="M55.6826 46.8262C55.8177 46.6238 55.9287 46.4063 56.0131 46.1781C56.2244 45.5379 56.1779 44.8405 55.8835 44.2339C55.6677 43.7988 55.3178 43.4444 54.8855 43.223C54.6361 43.0876 54.3958 42.936 54.1661 42.7693C53.9037 42.5814 53.7266 42.2971 53.6736 41.9787C53.5764 41.3306 54.0495 40.6826 54.0365 40.0345C54.0288 39.8624 53.9823 39.6943 53.9003 39.5428C53.8184 39.3912 53.7032 39.2602 53.5634 39.1596C53.2485 38.9451 52.9091 38.7689 52.5524 38.6347C52.1664 38.4857 51.8024 38.2852 51.4702 38.0385C51.1183 37.7589 50.8865 37.3556 50.8221 36.9108C50.6795 36.0165 50.9647 35.1222 50.9777 34.2149C51.0064 33.7597 50.8932 33.3068 50.6536 32.9188C50.3544 32.5542 49.9594 32.2804 49.513 32.1281C49.0325 31.9609 48.5628 31.7639 48.1067 31.5384C47.8589 31.4178 47.643 31.2405 47.4763 31.021C47.3097 30.8014 47.1971 30.5458 47.1476 30.2746C47.0984 29.7379 47.1246 29.1969 47.2254 28.6675C47.2805 28.4157 47.2836 28.1554 47.2346 27.9025C47.1856 27.6495 47.0854 27.4092 46.9402 27.1963C46.5515 26.8269 46.0772 26.5597 45.5598 26.4187C44.9898 26.2579 44.4859 25.9196 44.1211 25.4531C43.8166 24.9287 43.7086 24.313 43.8165 23.7162C43.9138 23.1328 44.059 22.5584 44.2507 21.9989C44.4343 21.4504 44.5113 20.8719 44.4776 20.2945C44.4432 20.0129 44.3477 19.7423 44.1977 19.5016C44.0476 19.2609 43.8468 19.056 43.6092 18.9011C43.0964 18.6135 42.537 18.4183 41.9566 18.3244C41.3798 18.2077 40.7836 18.117 40.2133 17.9485C39.6215 17.8065 39.0794 17.5064 38.645 17.0801C38.2395 16.6461 37.9342 16.1285 37.7507 15.5636C37.4007 14.4554 37.3035 13.3278 37.1026 12.2714C36.9988 11.7479 36.8266 11.2402 36.5906 10.7614C36.3444 10.315 35.9844 9.94159 35.5472 9.67918C34.64 9.19313 33.6031 9.32275 32.5986 9.36811C32.1036 9.40469 31.6063 9.38948 31.1145 9.32275C30.6284 9.2457 30.1682 9.05227 29.773 8.75893C29.1125 8.13468 28.5451 7.41882 28.088 6.63328C27.8532 6.28935 27.5816 5.97208 27.278 5.68711C26.9778 5.42789 26.6443 5.20994 26.2864 5.03904C24.9929 4.44758 23.5247 4.36203 22.1712 4.79926C21.1555 5.1338 20.2153 5.66444 19.404 6.36109C18.8841 6.79838 18.4007 7.27737 17.9588 7.79331L17.6153 8.19511L17.4922 8.33121C17.4922 8.33121 17.5246 8.27936 17.5959 8.18215C17.6672 8.08494 17.7709 7.94237 17.9199 7.76091C18.3523 7.23283 18.8269 6.74084 19.3392 6.28981C20.1547 5.57145 21.1039 5.02091 22.1323 4.66965C23.5187 4.21163 25.0265 4.29025 26.3577 4.88999C26.7299 5.06025 27.0785 5.27809 27.3946 5.53805C27.7107 5.82973 27.9933 6.15578 28.2371 6.51015C28.6854 7.27905 29.2444 7.9778 29.8961 8.58395C30.2634 8.85815 30.6933 9.03635 31.1469 9.1024C31.6258 9.1675 32.1104 9.18053 32.5921 9.14129C33.0846 9.14129 33.5901 9.07648 34.1086 9.09592C34.6441 9.10031 35.1715 9.22664 35.6509 9.46532C36.1182 9.75632 36.5004 10.1654 36.7591 10.6513C37.0053 11.1448 37.1882 11.6673 37.3035 12.2066C37.5368 13.2889 37.634 14.41 37.9516 15.4794C38.1214 16.0106 38.4069 16.4975 38.7876 16.9051C39.1982 17.2997 39.7056 17.5791 40.2587 17.7152C40.8095 17.8772 41.3993 17.9679 41.9825 18.0846C42.5927 18.1804 43.1809 18.3845 43.7193 18.6873C43.9857 18.8622 44.2107 19.0932 44.3786 19.3641C44.5465 19.6349 44.6532 19.9392 44.6914 20.2556C44.7296 20.8634 44.6504 21.4729 44.4581 22.0507C44.2679 22.597 44.1248 23.1585 44.0304 23.7292C43.9272 24.2732 44.0214 24.8362 44.2961 25.317C44.6366 25.7519 45.11 26.0637 45.6441 26.2048C46.1981 26.3594 46.7041 26.6514 47.1152 27.0538C47.2979 27.2863 47.4144 27.564 47.4522 27.8574C47.4846 28.1329 47.4846 28.4113 47.4522 28.6869C47.3575 29.1996 47.3292 29.7223 47.3679 30.2422C47.4133 30.4811 47.5137 30.7062 47.661 30.8997C47.8084 31.0931 47.9987 31.2497 48.2169 31.3569C48.6661 31.5762 49.1269 31.771 49.5973 31.9402C50.0791 32.1054 50.5039 32.4043 50.8221 32.8021C51.0887 33.2229 51.2136 33.718 51.1786 34.2149C51.1786 35.1611 50.874 36.0489 51.0036 36.8784C51.0611 37.2662 51.2595 37.6192 51.5609 37.87C51.8796 38.1108 52.2309 38.305 52.6043 38.4467C52.9713 38.5897 53.3195 38.7769 53.6412 39.0041C53.7974 39.1195 53.9256 39.2685 54.0165 39.4401C54.1074 39.6117 54.1585 39.8016 54.1661 39.9956C54.1661 40.7538 53.693 41.3436 53.7838 41.9398C53.806 42.0829 53.8564 42.2201 53.9321 42.3436C54.0077 42.4671 54.1071 42.5743 54.2244 42.6591C54.4468 42.8248 54.6807 42.9742 54.9244 43.1063C55.3707 43.3447 55.7294 43.7193 55.9483 44.1756C56.0965 44.4876 56.1808 44.826 56.1964 45.171C56.212 45.516 56.1585 45.8606 56.039 46.1846C55.965 46.4205 55.8437 46.6387 55.6826 46.8262Z" fill="#737690"/>
<path id="Vector_46" d="M23.261 34.066C23.0778 33.8075 22.985 33.4957 22.9971 33.1791C23.0092 32.8626 23.1255 32.5588 23.3279 32.3151C23.5303 32.0713 23.8075 31.9012 24.1165 31.8311C24.4254 31.761 24.7489 31.7948 25.0367 31.9273C25.399 32.1177 25.7034 32.4019 25.918 32.7504C26.0516 32.9148 26.1499 33.1049 26.2067 33.309C26.2636 33.513 26.2778 33.7266 26.2485 33.9363C26.1986 34.0998 26.1152 34.251 26.0036 34.3804C25.892 34.5098 25.7547 34.6146 25.6005 34.6881C25.3677 34.8124 25.112 34.8879 24.8491 34.9102C24.5862 34.9325 24.3214 34.901 24.071 34.8177C23.8257 34.7257 23.6053 34.5776 23.4275 34.3852C23.2497 34.1927 23.1194 33.9613 23.0471 33.7095" fill="#7C3B29"/>
<path id="Vector_47" d="M25.8409 31.7068C25.9316 31.7068 25.9705 31.9985 25.8409 32.4003C25.6556 32.9272 25.3161 33.3864 24.8665 33.718C24.417 34.0497 23.8782 34.2386 23.3199 34.2602C22.8987 34.2602 22.6719 34.15 22.6719 34.0593C22.6719 33.8649 23.6181 33.7871 24.4605 33.152C25.303 32.5169 25.6335 31.655 25.8409 31.7068Z" fill="#161B46"/>
<path id="Vector_48" d="M60.0706 57.9598L56.4285 52.2179L56.1758 46.5668L57.608 42.6784C57.608 42.6784 58.7486 42.4062 58.9041 43.7672C58.9721 44.7884 58.8264 45.8125 58.4764 46.7742L59.2606 49.5155C59.2606 49.5155 59.5198 49.8136 59.7596 48.673C59.9994 47.5324 59.5781 39.0817 59.5781 38.4984C59.5781 37.9152 59.617 36.5542 60.4789 36.6579C61.3408 36.7616 61.613 37.954 61.6195 38.5114C61.626 39.0687 62.2676 44.7652 62.2676 44.7652C62.2676 44.7652 62.4685 45.2772 62.6694 45.1994C62.8703 45.1216 62.4944 39.1141 62.449 38.1614C62.4037 37.2088 62.2028 35.109 63.3174 35.1026C64.4321 35.0961 64.4321 36.1589 64.4904 37.3254C64.5488 38.4919 65.2811 44.992 65.2811 44.992C65.2811 44.992 65.4496 45.4003 65.6116 44.8559C65.7736 44.3116 65.968 37.2282 66.0976 36.8977C66.2273 36.5672 66.8688 36.133 67.3938 36.9301C67.9187 37.7272 67.7761 39.6001 67.7048 42.8988C67.6465 45.8734 67.5493 47.1047 67.8928 47.338C68.2363 47.5713 69.487 45.7438 69.487 45.7438C69.487 45.7438 71.01 41.8554 72.2996 41.9656C73.5893 42.0757 72.7209 43.1062 72.5005 44.0134C72.3126 44.7846 70.0573 49.3859 70.0119 49.4248C69.9666 49.4637 67.7567 57.6941 67.7567 57.6941L73.4985 68.6787C74.3475 70.3119 74.2438 71.7441 73.9781 73.5652C73.6865 75.5677 72.2737 76.5851 69.3509 77.4989C67.1864 78.147 64.8793 77.5507 63.8294 76.4102C62.9601 75.4539 62.4019 74.2561 62.2287 72.9754C61.5806 69.3722 60.0836 57.9792 60.0836 57.9792L60.0706 57.9598Z" fill="#A36957"/>
<path id="Vector_49" d="M63.7193 53.8577C63.6675 53.8577 63.7193 53.4235 63.6027 52.756C63.4457 51.8899 63.0326 51.0907 62.4167 50.4618C61.9289 49.9472 61.2792 49.6155 60.5762 49.5221C60.1388 49.4692 59.6967 49.57 59.3254 49.8073H59.2736V49.7619C59.1958 49.6064 59.1699 49.5221 59.1829 49.5157C59.1958 49.5092 59.2542 49.574 59.3579 49.7101H59.2801C59.462 49.5517 59.674 49.4317 59.9034 49.3571C60.1328 49.2825 60.3748 49.2549 60.6151 49.2759C61.3822 49.3411 62.099 49.6846 62.6306 50.2415C63.2895 50.9072 63.7069 51.774 63.8165 52.7041C63.8854 53.0905 63.8518 53.4882 63.7193 53.8577Z" fill="#7C3B29"/>
<path id="Vector_50" d="M66.7978 49.5352C66.8496 49.6064 66.3571 50.0277 65.8711 50.6563C65.385 51.2849 65.0934 51.8617 65.0156 51.8293C65.1249 51.3391 65.3414 50.8791 65.6496 50.4825C65.9577 50.0858 66.3498 49.7623 66.7978 49.5352Z" fill="#7C3B29"/>
</g>
</svg>
