<svg width="32" height="32" viewBox="0 0 32 32" fill="none" xmlns="http://www.w3.org/2000/svg">
<g id="Group">
<path id="Vector" d="M27.5498 24H7.5498C7.19618 24 6.85704 24.1405 6.607 24.3905C6.35695 24.6406 6.21647 24.9797 6.21647 25.3334C6.21647 25.687 6.35695 26.0261 6.607 26.2762C6.85704 26.5262 7.19618 26.6667 7.5498 26.6667H27.5498V29.3334H7.5498C6.48894 29.3334 5.47152 28.9119 4.72138 28.1618C3.97123 27.4116 3.5498 26.3942 3.5498 25.3334V5.33335C3.5498 4.62611 3.83076 3.94783 4.33085 3.44774C4.83095 2.94764 5.50923 2.66669 6.21647 2.66669H27.5498V24ZM6.21647 21.4C6.43247 21.356 6.65514 21.3334 6.88314 21.3334H24.8831V5.33335H6.21647V21.4ZM20.8831 12H10.2165V9.33335H20.8831V12Z" fill="#11052B"/>
</g>
</svg>
