<svg width="18" height="18" viewBox="0 0 18 18" fill="none" xmlns="http://www.w3.org/2000/svg">
<g id="Icon/tiktok">
<path id="Vector" d="M6.91553 8.922C6.32219 8.922 5.74217 9.09794 5.24882 9.42759C4.75547 9.75723 4.37095 10.2258 4.14389 10.7739C3.91683 11.3221 3.85742 11.9253 3.97317 12.5073C4.08893 13.0892 4.37465 13.6238 4.79421 14.0433C5.21377 14.4629 5.74831 14.7486 6.33026 14.8644C6.9122 14.9801 7.5154 14.9207 8.06358 14.6936C8.61176 14.4666 9.08029 14.0821 9.40994 13.5887C9.73958 13.0954 9.91553 12.5153 9.91553 11.922V2.922C9.91553 3.91656 10.3106 4.87039 11.0139 5.57365C11.7171 6.27691 12.671 6.672 13.6655 6.672" stroke="black" stroke-width="1.125" stroke-linecap="round" stroke-linejoin="round"/>
</g>
</svg>
