<svg width="28" height="29" viewBox="0 0 28 29" fill="none" xmlns="http://www.w3.org/2000/svg">
<g id="Group">
<path id="Vector" d="M13.9997 26.1666C7.55617 26.1666 2.33301 20.9435 2.33301 14.5C2.33301 8.05648 7.55617 2.83331 13.9997 2.83331C20.4432 2.83331 25.6663 8.05648 25.6663 14.5C25.6663 20.9435 20.4432 26.1666 13.9997 26.1666ZM9.91634 16.8333V19.1666H12.833V21.5H15.1663V19.1666H16.333C17.1066 19.1666 17.8484 18.8594 18.3954 18.3124C18.9424 17.7654 19.2497 17.0235 19.2497 16.25C19.2497 15.4764 18.9424 14.7346 18.3954 14.1876C17.8484 13.6406 17.1066 13.3333 16.333 13.3333H11.6663C11.5116 13.3333 11.3633 13.2719 11.2539 13.1625C11.1445 13.0531 11.083 12.9047 11.083 12.75C11.083 12.5953 11.1445 12.4469 11.2539 12.3375C11.3633 12.2281 11.5116 12.1666 11.6663 12.1666H18.083V9.83331H15.1663V7.49998H12.833V9.83331H11.6663C10.8928 9.83331 10.1509 10.1406 9.60395 10.6876C9.05696 11.2346 8.74967 11.9764 8.74967 12.75C8.74967 13.5235 9.05696 14.2654 9.60395 14.8124C10.1509 15.3594 10.8928 15.6666 11.6663 15.6666H16.333C16.4877 15.6666 16.6361 15.7281 16.7455 15.8375C16.8549 15.9469 16.9163 16.0953 16.9163 16.25C16.9163 16.4047 16.8549 16.5531 16.7455 16.6625C16.6361 16.7719 16.4877 16.8333 16.333 16.8333H9.91634Z" fill="#69E07A"/>
</g>
</svg>
