<svg width="28" height="29" viewBox="0 0 28 29" fill="none" xmlns="http://www.w3.org/2000/svg">
<g id="Group">
<path id="Vector" d="M23.3333 26.1666H4.66667C4.35725 26.1666 4.0605 26.0437 3.84171 25.8249C3.62292 25.6061 3.5 25.3094 3.5 25V3.99998C3.5 3.69056 3.62292 3.39381 3.84171 3.17502C4.0605 2.95623 4.35725 2.83331 4.66667 2.83331H23.3333C23.6428 2.83331 23.9395 2.95623 24.1583 3.17502C24.3771 3.39381 24.5 3.69056 24.5 3.99998V25C24.5 25.3094 24.3771 25.6061 24.1583 25.8249C23.9395 26.0437 23.6428 26.1666 23.3333 26.1666ZM9.33333 11V13.3333H18.6667V11H9.33333ZM9.33333 15.6666V18H18.6667V15.6666H9.33333Z" fill="#FF8C42"/>
</g>
</svg>
