<svg width="29" height="29" viewBox="0 0 29 29" fill="none" xmlns="http://www.w3.org/2000/svg">
<g id="Group">
<path id="Vector" d="M2.83325 5.1585C2.83539 4.85211 2.95797 4.55885 3.17452 4.34209C3.39107 4.12532 3.6842 4.00244 3.99059 4H25.0093C25.6486 4 26.1666 4.51917 26.1666 5.1585V23.8415C26.1644 24.1479 26.0419 24.4411 25.8253 24.6579C25.6088 24.8747 25.3156 24.9976 25.0093 25H3.99059C3.68353 24.9997 3.38916 24.8775 3.17216 24.6603C2.95515 24.443 2.83325 24.1486 2.83325 23.8415V5.1585ZM7.49992 18V20.3333H21.4999V18H7.49992ZM7.49992 8.66667V15.6667H14.4999V8.66667H7.49992ZM16.8333 8.66667V11H21.4999V8.66667H16.8333ZM16.8333 13.3333V15.6667H21.4999V13.3333H16.8333ZM9.83325 11H12.1666V13.3333H9.83325V11Z" fill="#4500FF"/>
</g>
</svg>
