<svg width="25" height="24" viewBox="0 0 25 24" fill="none" xmlns="http://www.w3.org/2000/svg">
<g id="Group">
<path id="Vector" d="M12.375 2C15.092 2 15.431 2.01 16.497 2.06C17.562 2.11 18.287 2.277 18.925 2.525C19.585 2.779 20.141 3.123 20.697 3.678C21.2055 4.1779 21.599 4.78259 21.85 5.45C22.097 6.087 22.265 6.813 22.315 7.878C22.362 8.944 22.375 9.283 22.375 12C22.375 14.717 22.365 15.056 22.315 16.122C22.265 17.187 22.097 17.912 21.85 18.55C21.5997 19.2178 21.2061 19.8226 20.697 20.322C20.197 20.8303 19.5923 21.2238 18.925 21.475C18.288 21.722 17.562 21.89 16.497 21.94C15.431 21.987 15.092 22 12.375 22C9.658 22 9.319 21.99 8.253 21.94C7.188 21.89 6.463 21.722 5.825 21.475C5.15733 21.2245 4.55253 20.8309 4.053 20.322C3.54441 19.8222 3.15093 19.2175 2.9 18.55C2.652 17.913 2.485 17.187 2.435 16.122C2.388 15.056 2.375 14.717 2.375 12C2.375 9.283 2.385 8.944 2.435 7.878C2.485 6.812 2.652 6.088 2.9 5.45C3.15024 4.78218 3.5438 4.17732 4.053 3.678C4.55267 3.16923 5.15743 2.77573 5.825 2.525C6.463 2.277 7.187 2.11 8.253 2.06C9.319 2.013 9.658 2 12.375 2ZM12.375 7C11.0489 7 9.77715 7.52678 8.83947 8.46447C7.90178 9.40215 7.375 10.6739 7.375 12C7.375 13.3261 7.90178 14.5979 8.83947 15.5355C9.77715 16.4732 11.0489 17 12.375 17C13.7011 17 14.9729 16.4732 15.9105 15.5355C16.8482 14.5979 17.375 13.3261 17.375 12C17.375 10.6739 16.8482 9.40215 15.9105 8.46447C14.9729 7.52678 13.7011 7 12.375 7ZM18.875 6.75C18.875 6.41848 18.7433 6.10054 18.5089 5.86612C18.2745 5.6317 17.9565 5.5 17.625 5.5C17.2935 5.5 16.9755 5.6317 16.7411 5.86612C16.5067 6.10054 16.375 6.41848 16.375 6.75C16.375 7.08152 16.5067 7.39946 16.7411 7.63388C16.9755 7.8683 17.2935 8 17.625 8C17.9565 8 18.2745 7.8683 18.5089 7.63388C18.7433 7.39946 18.875 7.08152 18.875 6.75ZM12.375 9C13.1706 9 13.9337 9.31607 14.4963 9.87868C15.0589 10.4413 15.375 11.2044 15.375 12C15.375 12.7956 15.0589 13.5587 14.4963 14.1213C13.9337 14.6839 13.1706 15 12.375 15C11.5794 15 10.8163 14.6839 10.2537 14.1213C9.69107 13.5587 9.375 12.7956 9.375 12C9.375 11.2044 9.69107 10.4413 10.2537 9.87868C10.8163 9.31607 11.5794 9 12.375 9Z" fill="#6E768D"/>
</g>
</svg>
