<svg width="25" height="24" viewBox="0 0 25 24" fill="none" xmlns="http://www.w3.org/2000/svg">
<g id="Group">
<path id="Vector" d="M11.1626 2C16.1306 2 20.1626 6.032 20.1626 11C20.1626 15.968 16.1306 20 11.1626 20C6.1946 20 2.1626 15.968 2.1626 11C2.1626 6.032 6.1946 2 11.1626 2ZM11.1626 18C15.0296 18 18.1626 14.867 18.1626 11C18.1626 7.132 15.0296 4 11.1626 4C7.2946 4 4.1626 7.132 4.1626 11C4.1626 14.867 7.2946 18 11.1626 18ZM19.6476 18.071L22.4766 20.899L21.0616 22.314L18.2336 19.485L19.6476 18.071Z" fill="#4500FF"/>
</g>
</svg>
