<svg width="32" height="32" viewBox="0 0 32 32" fill="none" xmlns="http://www.w3.org/2000/svg">
<g id="Group">
<path id="Vector" d="M19.5501 4C20.2861 4 20.8835 4.59733 20.8835 5.33333V8H27.5501C28.2861 8 28.8835 8.59733 28.8835 9.33333V26.6667C28.8835 27.4027 28.2861 28 27.5501 28H3.55013C2.81413 28 2.2168 27.4027 2.2168 26.6667V9.33333C2.2168 8.59733 2.81413 8 3.55013 8H10.2168V5.33333C10.2168 4.59733 10.8141 4 11.5501 4H19.5501ZM20.8835 10.6667H10.2168V25.3333H20.8835V10.6667ZM4.88346 10.6667V25.3333H7.55013V10.6667H4.88346ZM18.2168 6.66667H12.8835V8H18.2168V6.66667ZM23.5501 10.6667V25.3333H26.2168V10.6667H23.5501Z" fill="#11052B"/>
</g>
</svg>
