<svg width="18" height="18" viewBox="0 0 18 18" fill="none" xmlns="http://www.w3.org/2000/svg">
<g id="Icon/email">
<path id="Union" fill-rule="evenodd" clip-rule="evenodd" d="M3.05732 4.89794C3.1745 4.51381 3.5317 4.23438 3.95416 4.23438H14.4542C14.8766 4.23438 15.2338 4.51381 15.351 4.89794L9.20416 8.99583L3.05732 4.89794ZM1.89169 5.16157C1.89158 5.16757 1.89157 5.17357 1.89166 5.17957V12.6719C1.89166 13.811 2.81507 14.7344 3.95416 14.7344H14.4542C15.5933 14.7344 16.5167 13.811 16.5167 12.6719V5.17956M15.3917 6.22292V12.6719C15.3917 13.1896 14.9719 13.6094 14.4542 13.6094H3.95416C3.43639 13.6094 3.01666 13.1896 3.01666 12.6719V6.22292L8.89214 10.1399C9.08109 10.2659 9.32724 10.2659 9.51618 10.1399L15.3917 6.22292ZM16.5166 5.16158C16.5111 4.02723 15.5898 3.10938 14.4542 3.10938H3.95416C2.81851 3.10938 1.89723 4.02723 1.89169 5.16157" fill="black"/>
</g>
</svg>
