<svg width="28" height="29" viewBox="0 0 28 29" fill="none" xmlns="http://www.w3.org/2000/svg">
<g id="Group">
<path id="Vector" d="M24.5 21.5H7C6.69058 21.5 6.39383 21.623 6.17504 21.8417C5.95625 22.0605 5.83333 22.3573 5.83333 22.6667C5.83333 22.9761 5.95625 23.2729 6.17504 23.4917C6.39383 23.7105 6.69058 23.8334 7 23.8334H24.5V26.1667H7C6.07174 26.1667 5.1815 25.798 4.52513 25.1416C3.86875 24.4852 3.5 23.595 3.5 22.6667V5.16671C3.5 4.54787 3.74583 3.95438 4.18342 3.51679C4.621 3.07921 5.21449 2.83337 5.83333 2.83337H24.5V21.5ZM5.83333 19.225C6.02233 19.1865 6.21717 19.1667 6.41667 19.1667H22.1667V5.16671H5.83333V19.225ZM18.6667 11H9.33333V8.66671H18.6667V11Z" fill="#FF8C42"/>
</g>
</svg>
