<svg width="31" height="30" viewBox="0 0 31 30" fill="none" xmlns="http://www.w3.org/2000/svg">
<g id="Group">
<path id="Vector" d="M26.625 20.525V24.945C26.6251 25.2615 26.5052 25.5662 26.2895 25.7977C26.0737 26.0293 25.7782 26.1703 25.4625 26.1925C24.9163 26.23 24.47 26.25 24.125 26.25C13.0788 26.25 4.125 17.2963 4.125 6.25C4.125 5.905 4.14375 5.45875 4.1825 4.9125C4.20465 4.59681 4.34573 4.30126 4.57725 4.08551C4.80878 3.86976 5.11353 3.74986 5.43 3.75H9.85C10.005 3.74984 10.1546 3.80732 10.2697 3.91128C10.3847 4.01523 10.457 4.15823 10.4725 4.3125C10.5013 4.6 10.5275 4.82875 10.5525 5.0025C10.8009 6.73615 11.31 8.42229 12.0625 10.0038C12.1813 10.2538 12.1038 10.5525 11.8787 10.7125L9.18125 12.64C10.8306 16.4831 13.8932 19.5457 17.7362 21.195L19.6613 18.5025C19.7399 18.3925 19.8547 18.3136 19.9856 18.2796C20.1165 18.2455 20.2552 18.2585 20.3775 18.3162C21.9588 19.0673 23.6445 19.5751 25.3775 19.8225C25.5513 19.8475 25.78 19.875 26.065 19.9025C26.219 19.9183 26.3617 19.9907 26.4654 20.1057C26.5691 20.2207 26.6264 20.3701 26.6262 20.525H26.625Z" fill="#34405E"/>
</g>
</svg>
