<svg width="32" height="32" viewBox="0 0 32 32" fill="none" xmlns="http://www.w3.org/2000/svg">
<g id="Group">
<path id="Vector" d="M22.3285 21.0826C23.5823 19.7578 24.4205 18.0946 24.7394 16.2986C25.0583 14.5026 24.8439 12.6525 24.1228 10.977C23.4016 9.30153 22.2053 7.87408 20.6816 6.87112C19.158 5.86816 17.3739 5.33364 15.5498 5.33364C13.7257 5.33364 11.9416 5.86816 10.418 6.87112C8.89435 7.87408 7.69803 9.30153 6.97687 10.977C6.25571 12.6525 6.04132 14.5026 6.3602 16.2986C6.67909 18.0946 7.51727 19.7578 8.77114 21.0826C9.4907 19.9344 10.4903 18.988 11.676 18.3321C12.8618 17.6763 14.1948 17.3326 15.5498 17.3333C16.9048 17.3326 18.2378 17.6763 19.4236 18.3321C20.6093 18.988 21.6089 19.9344 22.3285 21.0826ZM10.7298 23.0466L15.5498 27.8653L20.3698 23.0466C19.9376 22.1341 19.2551 21.3629 18.4019 20.823C17.5486 20.283 16.5596 19.9963 15.5498 19.9963C14.54 19.9963 13.551 20.283 12.6977 20.823C11.8445 21.3629 11.1621 22.1341 10.7298 23.0466ZM15.5498 31.6373L7.06448 23.152C5.38626 21.4737 4.24339 19.3355 3.78038 17.0078C3.31737 14.68 3.55501 12.2672 4.46327 10.0745C5.37153 7.88181 6.9096 6.00767 8.88298 4.6891C10.8564 3.37053 13.1764 2.66675 15.5498 2.66675C17.9232 2.66675 20.2432 3.37053 22.2166 4.6891C24.19 6.00767 25.7281 7.88181 26.6363 10.0745C27.5446 12.2672 27.7823 14.68 27.3192 17.0078C26.8562 19.3355 25.7134 21.4737 24.0351 23.152L15.5498 31.6373ZM15.5498 13.3333C15.9034 13.3333 16.2426 13.1928 16.4926 12.9428C16.7427 12.6927 16.8831 12.3536 16.8831 12C16.8831 11.6464 16.7427 11.3072 16.4926 11.0572C16.2426 10.8071 15.9034 10.6666 15.5498 10.6666C15.1962 10.6666 14.857 10.8071 14.607 11.0572C14.357 11.3072 14.2165 11.6464 14.2165 12C14.2165 12.3536 14.357 12.6927 14.607 12.9428C14.857 13.1928 15.1962 13.3333 15.5498 13.3333ZM15.5498 16C14.4889 16 13.4715 15.5785 12.7214 14.8284C11.9712 14.0783 11.5498 13.0608 11.5498 12C11.5498 10.9391 11.9712 9.9217 12.7214 9.17155C13.4715 8.4214 14.4889 7.99998 15.5498 7.99998C16.6107 7.99998 17.6281 8.4214 18.3782 9.17155C19.1284 9.9217 19.5498 10.9391 19.5498 12C19.5498 13.0608 19.1284 14.0783 18.3782 14.8284C17.6281 15.5785 16.6107 16 15.5498 16Z" fill="#11052B"/>
</g>
</svg>
