<svg width="31" height="30" viewBox="0 0 31 30" fill="none" xmlns="http://www.w3.org/2000/svg">
<rect x="0.5" width="30" height="30" rx="15" fill="#33CCFF"/>
<path d="M22.9453 10.2505C22.4499 10.4638 21.9292 10.6124 21.3959 10.6925C21.6452 10.6497 22.0121 10.2005 22.1581 10.0187C22.38 9.74448 22.5491 9.4314 22.6568 9.0954C22.6568 9.07044 22.6817 9.03479 22.6568 9.01697C22.6442 9.0101 22.6301 9.0065 22.6158 9.0065C22.6015 9.0065 22.5874 9.0101 22.5749 9.01697C21.9958 9.33084 21.3795 9.57039 20.7405 9.72997C20.7182 9.73678 20.6945 9.73739 20.6719 9.73173C20.6494 9.72608 20.6287 9.71438 20.6123 9.69788C20.5625 9.63861 20.509 9.58264 20.452 9.53033C20.1914 9.29662 19.8957 9.10535 19.5758 8.96349C19.1439 8.78616 18.6775 8.70936 18.2116 8.7389C17.7596 8.76747 17.3183 8.88882 16.9151 9.0954C16.5181 9.31319 16.1692 9.60907 15.8893 9.96526C15.5949 10.3319 15.3823 10.7573 15.266 11.213C15.17 11.6465 15.1591 12.0945 15.2339 12.5321C15.2339 12.6069 15.2339 12.6176 15.1698 12.6069C12.6302 12.2326 10.5465 11.3307 8.84396 9.39486C8.76917 9.3093 8.72998 9.3093 8.66943 9.39486C7.92857 10.5214 8.28832 12.3039 9.21439 13.1845C9.33906 13.3021 9.46729 13.4162 9.60264 13.5231C9.17803 13.493 8.7638 13.3778 8.38449 13.1845C8.31325 13.1381 8.27407 13.1631 8.27051 13.2486C8.26041 13.3672 8.26041 13.4865 8.27051 13.6051C8.34483 14.1736 8.56866 14.7121 8.91912 15.1656C9.26958 15.6191 9.73408 15.9713 10.2651 16.1862C10.3946 16.2417 10.5295 16.2835 10.6676 16.311C10.2745 16.3884 9.8714 16.4005 9.47441 16.3466C9.38892 16.3288 9.35687 16.3751 9.38892 16.4571C9.91252 17.8831 11.0487 18.3181 11.8822 18.5605C11.9962 18.5783 12.1102 18.5783 12.2384 18.6068C12.2384 18.6068 12.2384 18.6068 12.217 18.6282C11.9713 19.0774 10.9775 19.3804 10.5216 19.5373C9.68943 19.8365 8.80219 19.9508 7.92145 19.8724C7.78254 19.851 7.75048 19.8546 7.71486 19.8724C7.67924 19.8902 7.71486 19.9294 7.75404 19.9651C7.93213 20.0827 8.11022 20.1861 8.29544 20.2859C8.84683 20.587 9.42976 20.8261 10.0336 20.9989C13.1609 21.8617 16.68 21.2271 19.0273 18.892C20.8723 17.0596 21.5205 14.532 21.5205 12.0009C21.5205 11.9046 21.6381 11.8476 21.7058 11.7977C22.1725 11.4336 22.5841 11.0037 22.9275 10.5214C22.9869 10.4495 23.0174 10.358 23.013 10.2647C23.013 10.2112 23.013 10.2219 22.9453 10.2505Z" fill="white"/>
</svg>
