<svg width="32" height="32" viewBox="0 0 32 32" fill="none" xmlns="http://www.w3.org/2000/svg">
<g id="Group">
<path id="Vector" d="M22.2168 3.99998H27.5501C27.9038 3.99998 28.2429 4.14046 28.4929 4.3905C28.743 4.64055 28.8835 4.97969 28.8835 5.33331V26.6666C28.8835 27.0203 28.743 27.3594 28.4929 27.6095C28.2429 27.8595 27.9038 28 27.5501 28H3.55013C3.19651 28 2.85737 27.8595 2.60732 27.6095C2.35727 27.3594 2.2168 27.0203 2.2168 26.6666V5.33331C2.2168 4.97969 2.35727 4.64055 2.60732 4.3905C2.85737 4.14046 3.19651 3.99998 3.55013 3.99998H8.88346V1.33331H11.5501V3.99998H19.5501V1.33331H22.2168V3.99998ZM26.2168 12V6.66665H22.2168V9.33331H19.5501V6.66665H11.5501V9.33331H8.88346V6.66665H4.88346V12H26.2168ZM26.2168 14.6666H4.88346V25.3333H26.2168V14.6666ZM7.55013 17.3333H14.2168V22.6666H7.55013V17.3333Z" fill="#11052B"/>
</g>
</svg>
