<svg width="25" height="24" viewBox="0 0 25 24" fill="none" xmlns="http://www.w3.org/2000/svg">
<g id="Group">
<path id="Vector" d="M22.5371 5.65593C21.7736 5.99362 20.964 6.2154 20.1351 6.31393C21.0088 5.79136 21.6628 4.96894 21.9751 3.99993C21.1551 4.48793 20.2561 4.82993 19.3191 5.01493C18.6897 4.34151 17.8554 3.89489 16.946 3.74451C16.0366 3.59413 15.103 3.74842 14.2903 4.18338C13.4776 4.61834 12.8314 5.30961 12.4522 6.14972C12.0729 6.98983 11.9818 7.93171 12.1931 8.82893C10.5302 8.74558 8.90338 8.31345 7.41834 7.56059C5.93329 6.80773 4.62318 5.75097 3.57305 4.45893C3.20134 5.09738 3.00601 5.82315 3.00705 6.56193C3.00705 8.01193 3.74505 9.29293 4.86705 10.0429C4.20306 10.022 3.55369 9.84271 2.97305 9.51993V9.57193C2.97325 10.5376 3.30742 11.4735 3.9189 12.221C4.53038 12.9684 5.38153 13.4814 6.32805 13.6729C5.71167 13.84 5.06536 13.8646 4.43805 13.7449C4.70492 14.5762 5.22506 15.3031 5.92564 15.824C6.62623 16.3449 7.47218 16.6337 8.34505 16.6499C7.47753 17.3313 6.48423 17.8349 5.42193 18.1321C4.35964 18.4293 3.24918 18.5142 2.15405 18.3819C4.06575 19.6114 6.29115 20.264 8.56405 20.2619C16.2571 20.2619 20.4641 13.8889 20.4641 8.36193C20.4641 8.18193 20.4591 7.99993 20.4511 7.82193C21.2699 7.23009 21.9767 6.49695 22.5381 5.65693L22.5371 5.65593Z" fill="#6E768D"/>
</g>
</svg>
