<svg width="28" height="29" viewBox="0 0 28 29" fill="none" xmlns="http://www.w3.org/2000/svg">
<g id="Group">
<path id="Vector" d="M2.33301 26.1667C2.33301 23.6913 3.31634 21.3174 5.06668 19.567C6.81702 17.8167 9.19099 16.8334 11.6663 16.8334C14.1417 16.8334 16.5157 17.8167 18.266 19.567C20.0163 21.3174 20.9997 23.6913 20.9997 26.1667H2.33301ZM11.6663 15.6667C7.79884 15.6667 4.66634 12.5342 4.66634 8.66669C4.66634 4.79919 7.79884 1.66669 11.6663 1.66669C15.5338 1.66669 18.6663 4.79919 18.6663 8.66669C18.6663 12.5342 15.5338 15.6667 11.6663 15.6667ZM20.2565 18.2719C22.0411 18.7305 23.6355 19.7405 24.8127 21.158C25.9899 22.5755 26.69 24.3282 26.8132 26.1667H23.333C23.333 23.1217 22.1663 20.3497 20.2565 18.2719ZM17.8963 15.6165C18.874 14.7421 19.6559 13.6709 20.1907 12.4732C20.7255 11.2755 21.0012 9.97836 20.9997 8.66669C21.0022 7.0724 20.5944 5.50429 19.8155 4.11319C21.1369 4.37871 22.3256 5.09362 23.1795 6.13642C24.0335 7.17921 24.4999 8.48553 24.4997 9.83335C24.5 10.6646 24.3226 11.4862 23.9795 12.2433C23.6363 13.0004 23.1353 13.6753 22.51 14.223C21.8847 14.7706 21.1495 15.1783 20.3538 15.4186C19.5581 15.659 18.7203 15.7264 17.8963 15.6165Z" fill="#4500FF"/>
</g>
</svg>
