<svg width="30" height="30" viewBox="0 0 30 30" fill="none" xmlns="http://www.w3.org/2000/svg">
<circle cx="15" cy="15" r="15" fill="#007AB9"/>
<path d="M9.10618 10.991C10.1469 10.991 10.9906 10.1473 10.9906 9.10657C10.9906 8.06584 10.1469 7.22217 9.10618 7.22217C8.06546 7.22217 7.22179 8.06584 7.22179 9.10657C7.22179 10.1473 8.06546 10.991 9.10618 10.991Z" fill="white"/>
<path d="M12.7694 12.419V22.8736H16.0154V17.7036C16.0154 16.3394 16.272 15.0182 17.9635 15.0182C19.6317 15.0182 19.6524 16.578 19.6524 17.7897V22.8745H22.9001V17.1412C22.9001 14.3249 22.2938 12.1606 19.0022 12.1606C17.4218 12.1606 16.3625 13.0279 15.9292 13.8487H15.8853V12.419H12.7694V12.419ZM7.4796 12.419H10.7308V22.8736H7.4796V12.419Z" fill="white"/>
</svg>
