<svg width="29" height="29" viewBox="0 0 29 29" fill="none" xmlns="http://www.w3.org/2000/svg">
<g id="Group">
<path id="Vector" d="M7.94567 7.46263C9.80504 5.97287 12.1174 5.16283 14.5 5.16663C16.9792 5.16663 19.2577 6.02529 21.0543 7.46263L22.7495 5.76746L24.3992 7.41713L22.704 9.11229C23.938 10.6571 24.7107 12.519 24.9333 14.4836C25.1558 16.4482 24.8192 18.4358 23.962 20.2175C23.1048 21.9992 21.762 23.5027 20.0881 24.555C18.4142 25.6072 16.4772 26.1655 14.5 26.1655C12.5228 26.1655 10.5858 25.6072 8.91189 24.555C7.23797 23.5027 5.89517 21.9992 5.03801 20.2175C4.18086 18.4358 3.84418 16.4482 4.06673 14.4836C4.28928 12.519 5.06202 10.6571 6.29601 9.11229L4.60084 7.41829L6.25051 5.76863L7.94567 7.46379V7.46263ZM15.6667 14.5V9.24413L9.83334 16.8333H13.3333V22.0833L19.1667 14.5H15.6667ZM9.83334 1.66663H19.1667V3.99996H9.83334V1.66663Z" fill="#FF8C42"/>
</g>
</svg>
