<svg width="29" height="29" viewBox="0 0 29 29" fill="none" xmlns="http://www.w3.org/2000/svg">
<g id="Group">
<path id="Vector" d="M15.6667 24.9999H21.5V27.3333H7.49999V24.9999H13.3333V23.7749C11.4835 23.5892 9.70492 22.9642 8.14557 21.952C6.58623 20.9397 5.29131 19.5696 4.36865 17.9556L6.39515 16.7983C7.10773 18.0434 8.09775 19.1075 9.28831 19.9079C10.4789 20.7084 11.8379 21.2236 13.2599 21.4135C14.6819 21.6035 16.1285 21.4631 17.4874 21.0032C18.8463 20.5434 20.081 19.7764 21.0954 18.762C22.1098 17.7476 22.8767 16.513 23.3366 15.1541C23.7964 13.7951 23.9368 12.3485 23.7469 10.9265C23.5569 9.50455 23.0417 8.1455 22.2413 6.95494C21.4409 5.76438 20.3768 4.77436 19.1317 4.06178L20.289 2.03528C22.0752 3.05558 23.5597 4.5302 24.592 6.30952C25.6243 8.08884 26.1675 10.1095 26.1667 12.1666C26.1667 18.2158 21.5618 23.1904 15.6667 23.7749V24.9999ZM14.5 20.3333C13.4275 20.3333 12.3656 20.122 11.3747 19.7116C10.3839 19.3012 9.48362 18.6997 8.72528 17.9413C7.96693 17.183 7.36538 16.2827 6.95497 15.2919C6.54456 14.301 6.33332 13.2391 6.33332 12.1666C6.33332 11.0941 6.54456 10.0322 6.95497 9.04136C7.36538 8.05054 7.96693 7.15025 8.72528 6.39191C9.48362 5.63356 10.3839 5.03201 11.3747 4.6216C12.3656 4.21118 13.4275 3.99994 14.5 3.99994C16.6659 3.99994 18.7431 4.86036 20.2747 6.39191C21.8062 7.92345 22.6667 10.0007 22.6667 12.1666C22.6667 14.3325 21.8062 16.4098 20.2747 17.9413C18.7431 19.4729 16.6659 20.3333 14.5 20.3333Z" fill="#F58FB5"/>
</g>
</svg>
