<svg width="25" height="24" viewBox="0 0 25 24" fill="none" xmlns="http://www.w3.org/2000/svg">
<g id="47">
<g id="Group 1701">
<g id="Group">
<path id="Vector" d="M12.2998 19.1801C12.8741 19.1801 13.3398 18.7145 13.3398 18.1401C13.3398 17.5657 12.8741 17.1001 12.2998 17.1001C11.7254 17.1001 11.2598 17.5657 11.2598 18.1401C11.2598 18.7145 11.7254 19.1801 12.2998 19.1801Z" fill="#4500FF"/>
</g>
<path id="Vector_2" d="M15.5098 15.4202C14.7398 14.5002 13.5998 13.9102 12.2998 13.9102C10.9998 13.9102 9.85984 14.5002 9.08984 15.4202" stroke="#4500FF" stroke-width="1.2" stroke-miterlimit="10" stroke-linecap="round" stroke-linejoin="round"/>
<path id="Vector_3" d="M17.9601 12.2001C16.6001 10.6001 14.5701 9.57007 12.3001 9.57007C10.0301 9.57007 8.00014 10.5901 6.64014 12.2001" stroke="#4500FF" stroke-width="1.2" stroke-miterlimit="10" stroke-linecap="round" stroke-linejoin="round"/>
<path id="Vector_4" d="M20.5001 9.4101C18.5301 7.0801 15.5901 5.6001 12.3001 5.6001C9.0101 5.6001 6.0701 7.0801 4.1001 9.4101" stroke="#4500FF" stroke-width="1.2" stroke-miterlimit="10" stroke-linecap="round" stroke-linejoin="round"/>
</g>
</g>
</svg>
