<svg width="25" height="24" viewBox="0 0 25 24" fill="none" xmlns="http://www.w3.org/2000/svg">
<g id="86">
<path id="Vector" d="M9.26793 3.71012L11.3379 2.87012C12.1479 2.54012 13.0779 2.93012 13.4079 3.75012L14.0379 5.29012C14.3679 6.10012 13.9779 7.03012 13.1579 7.37012L10.8679 8.30012C11.1079 9.45012 11.4779 10.8001 12.0579 12.2601C12.7079 13.9101 13.4579 15.2701 14.1379 16.3601L16.4279 15.4301C17.2479 15.1001 18.1779 15.4901 18.5079 16.3101L19.1379 17.8501C19.4679 18.6701 19.0779 19.6001 18.2579 19.9301L16.1879 20.7701L16.1479 20.7901C13.9179 21.6901 11.3479 20.8201 10.1879 18.7201C9.40793 17.3101 8.63793 15.7301 7.92793 13.9601C7.28793 12.3601 6.78793 10.8301 6.40793 9.41012C5.77793 7.08012 6.99793 4.65012 9.22793 3.74012L9.26793 3.71012Z" stroke="#FFD142" stroke-width="1.2" stroke-miterlimit="10" stroke-linecap="round" stroke-linejoin="round"/>
</g>
</svg>
