<svg width="80" height="72" viewBox="0 0 80 72" fill="none" xmlns="http://www.w3.org/2000/svg">
<g id="Ellipse">
<g id="Ellipse_2">
<circle id="Ellipse 176" cx="4" cy="4" r="4" fill="#F2F2F2"/>
<circle id="Ellipse 178" cx="52" cy="4" r="4" fill="#F2F2F2"/>
<circle id="Ellipse 177" cx="28" cy="4" r="4" fill="#F2F2F2"/>
<circle id="Ellipse 179" cx="76" cy="4" r="4" fill="#F2F2F2"/>
</g>
<g id="Ellipse_3">
<circle id="Ellipse 176_2" cx="4" cy="20" r="4" fill="#F2F2F2"/>
<circle id="Ellipse 178_2" cx="52" cy="20" r="4" fill="#F2F2F2"/>
<circle id="Ellipse 177_2" cx="28" cy="20" r="4" fill="#F2F2F2"/>
<circle id="Ellipse 179_2" cx="76" cy="20" r="4" fill="#F2F2F2"/>
</g>
<g id="Ellipse_4">
<circle id="Ellipse 176_3" cx="4" cy="36" r="4" fill="#F2F2F2"/>
<circle id="Ellipse 178_3" cx="52" cy="36" r="4" fill="#F2F2F2"/>
<circle id="Ellipse 177_3" cx="28" cy="36" r="4" fill="#F2F2F2"/>
<circle id="Ellipse 179_3" cx="76" cy="36" r="4" fill="#F2F2F2"/>
</g>
<g id="Ellipse_5">
<circle id="Ellipse 176_4" cx="4" cy="52" r="4" fill="#F2F2F2"/>
<circle id="Ellipse 178_4" cx="52" cy="52" r="4" fill="#F2F2F2"/>
<circle id="Ellipse 177_4" cx="28" cy="52" r="4" fill="#F2F2F2"/>
<circle id="Ellipse 179_4" cx="76" cy="52" r="4" fill="#F2F2F2"/>
</g>
<g id="Ellipse_6">
<circle id="Ellipse 176_5" cx="4" cy="68" r="4" fill="#F2F2F2"/>
<circle id="Ellipse 178_5" cx="52" cy="68" r="4" fill="#F2F2F2"/>
<circle id="Ellipse 177_5" cx="28" cy="68" r="4" fill="#F2F2F2"/>
<circle id="Ellipse 179_5" cx="76" cy="68" r="4" fill="#F2F2F2"/>
</g>
</g>
</svg>
