<svg width="32" height="32" viewBox="0 0 32 32" fill="none" xmlns="http://www.w3.org/2000/svg">
<rect width="32" height="32" fill="#4500FF"/>
<path d="M9.42877 20.6278V13.792C9.42877 13.792 10.0862 13.2823 10.864 13.3437C11.6417 13.4051 11.9063 14.1388 11.925 14.6084C11.9464 15.078 11.925 19.9821 11.925 19.9821C11.925 19.9821 12.0079 20.8786 12.9459 20.8786H15.1722V13.7306C15.1722 13.7306 15.6827 13.1916 16.6235 13.3384C17.5642 13.4851 17.5215 14.3629 17.5429 15.689C17.5642 17.0151 17.5429 20.1342 17.5429 20.1342C17.5429 20.1342 17.7486 20.908 19.0342 20.9293C20.3224 20.9506 20.75 20.8066 20.75 20.8066C20.734 19.5392 20.7179 18.2718 20.7099 17.0044C20.7046 16.3961 20.7019 15.7851 20.7099 15.1767C20.7153 14.6058 20.7099 14.0268 20.5683 13.4718C20.5228 13.2957 20.464 13.1249 20.3919 12.9595C20.1139 12.3432 19.6729 11.7988 19.093 11.444C18.6547 11.1772 18.1575 11.0277 17.6498 10.977C15.0546 10.7129 13.9722 11.8549 13.6248 11.9563C13.6248 11.9563 13.0742 10.9771 10.725 10.9584C8.37577 10.937 6.88444 12.1617 6.3125 12.9782V19.9527C6.3125 20.3209 6.61986 20.8946 7.61942 20.9346C8.62165 20.972 9.43144 20.6331 9.43144 20.6331" fill="#69E07A"/>
<path d="M25.625 19.2812C25.625 20.264 24.8292 21.0625 23.8437 21.0625C22.8583 21.0625 22.0625 20.2667 22.0625 19.2812C22.0625 18.2958 22.8583 17.5 23.8437 17.5C24.8292 17.5 25.625 18.2958 25.625 19.2812Z" fill="white"/>
</svg>
