<svg width="75" height="22" viewBox="0 0 75 22" fill="none" xmlns="http://www.w3.org/2000/svg">
<g id="Group 427319663">
<g id="Group 1">
<path id="Vector" d="M32.1294 3.37874C30.9057 3.37874 30.2961 4.64537 30.2961 5.71449C30.2961 7.56935 31.6056 12.7905 33.9628 12.7905C35.2939 12.7905 35.8606 11.6312 35.8606 10.4547C35.8606 8.46673 34.6799 3.37874 32.1252 3.37874M24.6799 8.02878C24.6799 3.40021 28.3682 0.124146 33.1299 0.124146C39.1582 0.124146 41.4724 5.43112 41.4724 8.24776C41.4724 12.945 37.3248 16.045 32.868 16.045C28.4111 16.045 24.6799 12.6831 24.6799 8.02878Z" fill="#4500FF"/>
<path id="Vector_2" d="M57.6938 3.37874C56.4701 3.37874 55.8604 4.64537 55.8604 5.71449C55.8604 7.56935 57.1699 12.7905 59.5271 12.7905C60.8582 12.7905 61.4293 11.6312 61.4293 10.4547C61.4293 8.46673 60.2485 3.37874 57.6938 3.37874ZM50.2485 8.02878C50.2485 3.40021 53.9368 0.124146 58.6985 0.124146C64.7268 0.124146 67.041 5.43112 67.041 8.24776C67.041 12.945 62.8934 16.045 58.4366 16.045C53.9797 16.045 50.2485 12.6831 50.2485 8.02878Z" fill="#4500FF"/>
<path id="Vector_3" d="M4.98924 15.6458V4.69694C4.98924 4.69694 6.04117 3.88115 7.28204 3.97991C8.52291 4.07866 8.94799 5.25513 8.98234 6.00652C9.01669 6.75791 8.98234 14.6153 8.98234 14.6153C8.98234 14.6153 9.11114 16.0537 10.6139 16.0537H14.1734V4.60248C14.1734 4.60248 14.9892 3.73516 16.492 3.97561C17.9947 4.21176 17.9303 5.61578 17.9604 7.74115C17.9947 9.86651 17.9604 14.86 17.9604 14.86C17.9604 14.86 18.2867 16.1009 20.3434 16.1353C22.4 16.1696 23.087 15.9378 23.087 15.9378C23.0613 13.9068 23.0355 11.8802 23.0226 9.84934C23.014 8.87468 23.0097 7.89572 23.0226 6.92106C23.0312 6.0108 23.0226 5.07908 22.795 4.19029C22.7221 3.9112 22.6319 3.63641 22.5117 3.3702C22.0651 2.38266 21.3653 1.51105 20.4335 0.944284C19.7337 0.519211 18.9393 0.27877 18.1278 0.197191C13.9802 -0.227882 12.2498 1.60122 11.6916 1.76438C11.6916 1.76438 10.8114 0.197183 7.05449 0.162834C3.29753 0.128485 0.91455 2.09069 0 3.39596V14.5681C0 15.1563 0.489476 16.0751 2.09101 16.1396C3.69255 16.1997 4.98924 15.6544 4.98924 15.6544" fill="#69E07A"/>
<path id="Vector_4" d="M48.6302 7.5521C48.6302 10.373 48.6989 13.194 48.6131 16.0149C48.5143 19.3125 46.9299 21.485 44.2936 21.8457C43.4263 21.9659 42.3529 21.7169 41.5972 21.2661C40.2962 20.4975 40.5109 19.3253 41.3954 18.1575C42.1854 17.1098 42.9282 15.7229 42.9712 14.4649C43.1472 9.16652 43.1 7.72386 43.027 2.42118C43.0055 0.884051 43.3748 0.11978 45.0622 0.128367C47.5397 0.141248 48.6002 0.699422 48.6345 2.44694C48.6903 5.43533 48.6517 4.56372 48.6517 7.5564H48.6388" fill="#4500FF"/>
<path id="Vector_5" d="M74.6625 13.4689C74.6625 15.0404 73.3873 16.3199 71.8115 16.3199C70.2358 16.3199 68.9648 15.0447 68.9648 13.4689C68.9648 11.8931 70.2401 10.6222 71.8115 10.6222C73.383 10.6222 74.6625 11.8974 74.6625 13.4689Z" fill="#4500FF"/>
</g>
</g>
</svg>
